<?xml version="1.0" encoding="UTF-8"?>
<svg id="Capa_1" xmlns="http://www.w3.org/2000/svg" version="1.1" viewBox="0 0 1000 1000">
  <!-- Generator: Adobe Illustrator 29.2.0, SVG Export Plug-In . SVG Version: 2.1.0 Build 108)  -->
  <defs>
    <style>
      .st0 {
        fill: #1d1d1b;
      }

      .st1 {
        fill: none;
      }

      .st2 {
        fill: #fefdfe;
      }
    </style>
  </defs>
  <path class="st0" d="M480.1,41.5c394.5-17.7,631,433.2,386.2,744.9-208.8,265.9-626,221.9-775.5-80.5C-55.4,409.9,151.3,56.2,480.1,41.5ZM811.6,174.5C560.1-60.5,147.1,62.8,67.6,396.2-15.7,745.2,323.7,1047,660.7,922.3c310.1-114.7,393.7-520.9,150.9-747.9Z"/>
  <path class="st2" d="M811.6,174.5C560.2-60.5,147.2,62.8,67.6,396.2-15.6,745.2,323.7,1047.1,660.7,922.3c310.1-114.7,393.7-520.9,150.9-747.9ZM740.7,734.1c-171.2,174.3-467.9,108.4-549.1-121C98.2,349.6,352.3,95.7,615.7,189c227.2,80.5,294.6,372.5,125,545.1Z"/>
  <path class="st0" d="M740.7,734.2c-171.2,174.3-467.9,108.4-549.1-121C98.2,349.6,352.3,95.7,615.7,189c227.1,80.5,294.6,372.5,125,545.1ZM491.1,205.3c-246.3,11.5-372.8,300.2-211.1,488.2,136.7,158.9,392.9,125.5,486.6-60.9,100.3-199.7-52.7-437.7-275.5-427.3Z"/>
  <path class="st2" d="M766.6,632.6c-93.6,186.4-349.9,219.9-486.5,60.9-161.8-188-35.2-476.7,211.1-488.2,222.7-10.4,375.8,227.6,275.5,427.3Z"/>
  <path class="st2" d="M450.4,889.4c1.9-4.9.6-26.3,5.7-27.8s14.9,2.3,16.1,7.5c3.5,15.9-6.4,24.5-21.8,20.3Z"/>
  <path class="st2" d="M313.5,847.4c-.9-1.2,12.7-25.7,14-26.5,4.5-2.9,15.7,6.5,16.1,12.1.3,4.5-5,14.8-8.7,17.3-8.1,5.5-13.8,0-21.3-2.9Z"/>
  <path class="st2" d="M386.4,859.4l1,28c-.6.7-17.2-4.9-17.9-5.5-1.2-.9-1.3-1.1-.6-2.5,1.1-2.1,12.6-16.2,14.7-18.3s.9-2.2,2.8-1.7Z"/>
  <path class="st2" d="M669.9,136.4c5.9,7.3-4.8,36.8-18.6,25.5-.7-1.1.2-3.4.6-4.7.7-2.6,8-22.2,8.8-23.2,2-2.4,7.8.6,9.2,2.3Z"/>
  <polygon class="st2" points="632.2 141.1 624.2 137.6 632.2 126.1 632.2 141.1"/>
  <path class="st2" d="M519.3,105.1l3,13c-2.4-.3-8.8,1.3-8.8-2.3.6-.9,3.8-13.2,5.8-10.7Z"/>
  <path class="st2" d="M832.7,288.1c6.8-1.9,10.3,14.7.6,15.6s-8.4-5.6-8.3-8.3c0-1.8,6.2-6.9,7.7-7.3Z"/>
  <path class="st2" d="M307.2,152.3c9.8-1.7,8.8,14.7.7,14.8s-8-10.5-5.5-12.5c1.5-.7,3.2-2,4.8-2.3Z"/>
  <path class="st2" d="M596.4,110.3c3.2-2.1,9.5,1.7,10.9,5.3,2.2,5.5-1.2,21.6-6.1,25s-10.4,1.8-11-1.9,5-27.5,6.2-28.3Z"/>
  <g>
    <path class="st0" d="M496.4,474.4c1.5-3.7,6.5-11.1,9-14.5s8.3-10.2,10-8.5c-.6,6.7,3,12.6,6.6,17.9l64,52c2,.4,14.2-16.5,14.1-19.2-.3-8.8-20.9-21.2-19.5-31.9s16.4-21.7,17.8-22.3,4.5,1.8,6,3.1c6.3,5.1,29.8,27.2,34,33,2.9,4.1,3.9,7.4,2.5,12.5-.8,3.1-12.9,17.5-15.8,16.8s-11.1-12.6-17-10.7c-5.2,4.2-18,19-14.2,25.8,26.3,21.9,59.7,40.3,39.9,79.9-3.2,6.5-10.4,16.8-17.5,19,0,0,.8-15.1,0-21.5s-5.7-9.3-7.5-10.5l-78.1-58.8c-6.4,1.2-11.5,8.1-12.2,14.4-2.4,20.1,35.4,27,38.6,46.1,5.3,31-42.3,28.1-61.1,26.1-1-.1-4.7-.4-4.6-1.9,10.4-1.6,23.5-9.7,13.6-20.7-.4-.5-1.6-.2-1.7-.3-8.6-10.4-9.9-22.1-6-35,2.3-7.3,8-17.6,13-23.5s10.8-9.3,11.1-10,.1-1.7-.2-2.3c-7.9-5.8-15.7-13.9-20.8-22.1-6.4-10.5-8.8-21.1-4-33Z"/>
    <path class="st0" d="M496.4,474.4c-4.8,11.9-2.5,22.5,4,33-2.4.3-4.6,5.5-5.2,5.8-5,2.9-11.4-13.1-19.8-10.4s-19.6,20.9-13.6,26.3c13.9,10.2,26.9,21.1,35.7,36.3-4,12.9-2.6,24.6,6,35-2.4,5.9-13.8,11-19,7.5s-2.2-5.6-3.5-7.5-4.1-4.3-6-6c-22.3-20.2-52.3-36.7-75.1-56.8-7.6-3.8-15.7,11.8-13.9,18.9,5,19,49.6,27.1,37.4,52.3-10.1,20.9-46.3,15.6-64.8,13.6l11.6-5.5c2.2-1,4-2.7,5.1-4.8,4.1-8.2-7.4-13.4-10.2-21.7-5.2-15.7,2.3-36.1,12.5-48.4,3.3-4,7.8-6.9,11-11,0-1-11.7-11.2-13.6-13.5-20.4-24.6-15.8-46.8,7.5-66.9,0,8.8,4.4,16.9,10.5,23,13.3,13.2,38.3,31,54,42.9,1.6,1.2,6.4,5.2,7.9,5.1,2.3-4.6,12.1-14,12.5-18.6,1-9.4-23.4-22.3-18.4-35.3.8-2.2,17.3-20.2,18.8-19.9l28.6,26.9Z"/>
    <path class="st0" d="M496.4,427.4c-17.6.3-35.4.2-53-.4v-9.1c3.1-2.2,16.2,2.9,15.1-5.9l-27.5-49.5c-1.6-.4-15.6,16.4-16.2,18.7-.8,3.2-.7,31.5.4,34,1.8,4.2,13.5,1.1,17.4,2.7,1.6,1.1,1.7,8.2-.6,9.6h-63.4l.4-9.1c8.1-3.1,16.6,3.5,16.6-8.4,0-32.7-.1-73.5-.1-105.9-1.4-8.1-10.8-5-16.9-5.6v-9h64.9v9h-14.5c-.5,0-4.5,3.1-4.5,3.5v61.4l45.2-54.2c3.8-9.1-6.1-11.5-13.2-10.7v-9h54v9c-23.7-1.1-37.3,24.9-50.9,40.4l42.4,75.5c.6.5,5,2.9,5.5,3l-1,10Z"/>
    <path class="st0" d="M497.4,417.4c7.8,1.4,11.4-3.4,15.8-8.7l49-121.6,10.4-.7,49.8,123.3c2.2,7.5,8.8,8.8,15.8,8.6v8h-61.9v-8c4.9-.5,16.9.4,17.8-5.7s-10.4-23.4-10.9-30.1c-7.2.8-46.2-1.9-49.3.9s-5.4,12.8-6,15c-4.1,15.3,4.5,19.5,18.5,20v8c-16.7-.8-33.3.7-49.9,1l1-10ZM538.4,373.5h40l-20.5-51-19.5,51Z"/>
    <path class="st0" d="M478.5,683.2c18.2,3.4,17.3-14.8,5.1-21.6-.5-2,6.5-9.4,8.4-9.4,8.7,4,11,19.8,7.7,27.8s-10.3,11.3-11.3,11.7c-2.8,1.2-6.1.3-9,.5v8h22.5c.8,0,11.5-9.1,12.5-10.5,4.2-5.9,4.4-14.2,1.7-20.7s-7.5-5.9-6.3-8.7,7.9-8.1,9.1-8.1c11.5,8,9,29.8,2.3,40.4-1.6,2.6-19.6,18.3-22.3,19.7s-19.7,1.6-23,.9c-10.2-2.1-3.3-30.1-5.7-38.2-.9-3.1-13.1-11.6-12.7-14.1,2.7-1.9,6.2-9,9.4-8.7s11.5,9.8,11.5,10.5v20.5Z"/>
    <path class="st0" d="M546.4,713.2l6-13h36v-27.5c0-.6-4.1-4.2-5.5-4.5-6.2-1.3-32.5,3.6-32.5-5.5l10.7-11.4c8.9,8.4,33.2-4.9,35.3,11.4.9,6.8,1,33.5,0,39.9s-4.3,8-6.4,10.5h-43.5Z"/>
    <path class="st0" d="M430.5,712.2v-38.5c0-.9-3.4-4.9-4.7-5.3-6.3-1.8-33.3,3.7-33.3-5.7l10.7-11.4c9,7.8,27.8-3.1,34.4,8.4,3.5,6.2-.7,37,.9,46l-8,6.5Z"/>
  </g>
  <path class="st2" d="M343.1,718.8c1.6-.2,8.1,1.7,8.4,3.2-8.5,16.2-20.4-1.9-8.4-3.2Z"/>
  <path class="st2" d="M432.7,748.8c2.8-2.4,8.3-1.5,10,1.9,2.8,6-2.6,26-12.6,19.6-5.5-2.7,0-19.3,2.7-21.6Z"/>
  <path class="st2" d="M644.9,715.7c9-1.6,21.3,22.9,7.7,22.9-8,0-18.4-21-7.7-22.9Z"/>
  <path class="st2" d="M546.1,762.3c-.9,1.5-8.8,1.2-10.8,1.1-2.9-16,15.9-9.3,10.8-1.1Z"/>
  <g>
    <path class="st0" d="M211.9,710.2l14.1,15.8-37.6,31.7,16.7,3.3c2.7.5,4.5.4,5.4-.4.6-.5.8-1.2.6-2.2-.1-1-.8-2.2-2-3.7l-1-1.2,3.3-2.8,16.8,19.9-3.3,2.8c-1.9-2.1-3.5-3.5-5-4.3-2-1.1-4.2-1.9-6.7-2.3l-9.7-1.7-6.5,27.1c-.5,2.2-.1,4,1.1,5.4l1.5,1.8-3.4,2.9-18.1-21.5,3.4-2.9,1.8,2.1c.9,1,1.6,1.6,2.2,1.9.6.2,1,.2,1.3,0,.3-.2.5-.6.6-1.1l4.5-17.9-7.6-1.6-6.8,5.7c-1.1.9-1.6,1.8-1.7,2.6s.3,1.7,1.1,2.7l2,2.4-3.4,2.9-17.7-21,3.4-2.9,2.2,2.6c1,1.2,2.1,1.9,3.2,2s2.2-.4,3.4-1.4l41.2-34.8c.9-.8,1.4-1.7,1.4-2.7,0-1-.4-2-1.3-3.1l-2.8-3.3,3.3-2.8Z"/>
    <path class="st0" d="M248.9,841.3l-.7,3.9c-2.3-.3-4.3-.7-5.8-1.3-1.5-.6-3-1.6-4.3-2.8-2.1-1.8-3.4-3.7-3.9-5.7-.5-2-.2-4.7.8-8-4.6.3-8.2,0-10.9-.8s-5.3-2.3-7.8-4.4c-3.4-3-5.4-6-5.9-9.3-.5-3.2.2-6,2.3-8.4,3.2-3.6,7.5-5,12.9-4.2,4.3.7,12,4.4,23,10.9l4.2-4.9c1.7-1.9,2.4-4.1,2.2-6.4-.2-2.3-1.4-4.4-3.5-6.3-1.6-1.4-3.4-2.3-5.2-2.7-1.2-.3-2.1-.2-2.5.3-.2.2-.4.7-.5,1.5-.3,1.7-.9,3-1.8,4.1-1.2,1.3-2.6,2-4.2,2.1-1.6,0-3.2-.6-4.7-1.9-1.6-1.4-2.5-2.9-2.6-4.7-.2-1.7.3-3.3,1.6-4.7,2-2.3,5.1-3.3,9.2-2.9,5.1.5,10,2.8,14.7,6.9,3.5,3.1,6.2,6.4,8,9.9,1.1,2.2,1.5,4.7,1.1,7.4-.4,2.7-1.7,5.3-4,7.9l-14.9,17.2c-1.1,1.3-1.7,2.4-1.7,3.4,0,1,.4,1.9,1.2,2.6.7.6,1.9,1,3.7,1.3ZM245.9,814.4c-5.8-3.8-10.2-5.7-13.3-5.9s-5.7,1-7.7,3.4c-1.5,1.7-2.2,3.4-2.1,5,0,1.6.9,3.1,2.4,4.5,2.4,2.1,5.1,2.9,8.2,2.6,3.1-.3,5.9-2,8.5-4.9l4.1-4.7Z"/>
    <path class="st0" d="M268.9,828.8l24.7,16.9-5.1,7.5-24.7-16.9,5.1-7.5Z"/>
    <path class="st0" d="M318.3,810.3l19.2,9.1-22.3,43.8,16.7-3.5c2.7-.6,4.3-1.4,4.8-2.4.3-.6.2-1.4-.3-2.3-.5-.9-1.6-1.8-3.3-2.6l-1.4-.7,2-3.9,23.2,11.9-2,3.9c-2.5-1.2-4.6-1.9-6.3-2.1-2.3-.3-4.6-.1-7.1.4l-9.6,2.2,4.5,27.5c.4,2.2,1.4,3.7,3.1,4.5l2.1,1.1-2,4-25.1-12.8,2-4,2.5,1.3c1.2.6,2.1.9,2.7.9.6,0,1-.2,1.2-.5.2-.3.2-.7,0-1.2l-2.8-18.2-7.7,1.5-4,7.9c-.6,1.3-.8,2.3-.6,3.1s.9,1.5,2.1,2.1l2.8,1.4-2,4-24.5-12.5,2-4,3,1.5c1.4.7,2.7.9,3.7.6s1.9-1.2,2.6-2.7l24.5-48c.6-1.1.6-2.1.3-3s-1.2-1.7-2.4-2.3l-3.8-1.9,2-3.9Z"/>
    <path class="st0" d="M390.9,868.5c4.8,1.5,8.9,3.9,12.2,7.2,3.4,3.3,5.5,6.9,6.4,10.9.9,3.9.6,8.3-.8,13-2.3,7.5-6.7,12.4-13,14.9-6.3,2.4-12.8,2.6-19.2.6-4.6-1.4-8.4-3.8-11.6-7s-5.2-6.9-6.2-11c-1-4.1-.8-8.4.6-12.8,2.1-6.6,6.1-11.4,12.1-14.5,6-3,12.5-3.5,19.5-1.3ZM389.9,872.9c-3.2-1-6.1-.4-8.9,1.8s-5.2,6.8-7.4,13.8c-2.3,7.3-2.9,12.6-1.9,15.9,1,3.3,3.1,5.5,6.3,6.5,3.2,1,6.3.4,9.1-1.8s5.4-6.8,7.5-13.7c2.2-7.1,2.8-12.4,1.7-15.8-1.1-3.4-3.2-5.6-6.5-6.7Z"/>
    <path class="st0" d="M454,886.2l3.7-3.3,2.9.4-1.4,15.3-3.8-.6c-1.4-4.3-3.2-7.5-5.3-9.5-2.2-2-5-3.3-8.4-3.8-3-.5-5.3-.2-7,.7-1.7.9-2.7,2.2-3,4-.3,1.7.1,3.1,1.2,4.2,1.1,1.1,4.2,2.6,9.4,4.5,4.7,1.7,7.8,3.1,9.3,4,2.9,1.7,5,3.9,6.3,6.6s1.8,5.7,1.3,8.9c-.6,4.1-2.8,7.3-6.5,9.6-3.7,2.3-8.3,3-13.6,2.2-2.6-.4-4.9-1.1-6.9-2-2-.9-4-2.4-6-4.3l-4,3.4-3.6-.6,1.8-16.9,3.9.6c2,9,7.1,14.1,15.2,15.4,3.3.5,6,.3,8-.7s3.1-2.4,3.4-4.2c.3-1.6-.1-3-1.1-4-1-1-3.8-2.4-8.4-4.1-5-1.8-8.3-3.3-10.1-4.3-3-1.7-5.1-3.8-6.4-6.2-1.3-2.4-1.7-5.2-1.2-8.3.7-4.4,2.7-7.8,6.1-10.2,3.4-2.4,7.5-3.2,12.4-2.4,2.4.4,4.5,1,6.3,1.9,1.8.9,3.7,2.2,5.6,3.9Z"/>
    <path class="st0" d="M471.2,861.3l21.2-.7-.6,34.8c3.3-3.9,6.3-6.6,9-8,2.7-1.4,5.7-2.1,8.9-2,4.5,0,7.9,1.5,10.2,4.2,2.6,3.2,3.9,7.6,3.8,13.3l-.3,21.2c0,1.5.3,2.5.9,3.2.7.7,1.6,1.1,2.9,1.1h3.1s0,4.5,0,4.5l-27-.4v-4.5c0,0,3,0,3,0,1.6,0,2.7-.3,3.3-.9.8-.8,1.2-1.9,1.2-3.3l.3-20.9c0-3-.7-5.4-2.3-7.2-1.6-1.8-3.6-2.7-6-2.8-3,0-5.6,1.2-7.8,3.7-2.2,2.5-3.3,5.9-3.4,10.2l-.3,16.6c0,1.4.3,2.5,1,3.2.7.7,1.6,1.1,2.9,1.1h3.3c0,0,0,4.5,0,4.5l-27.8-.4v-4.4c0,0,3.9,0,3.9,0,1.4,0,2.4-.3,3.1-1.1.7-.7,1.1-1.8,1.1-3.1l.8-52.7c0-1.5-.4-2.7-1.4-3.6s-2.3-1.4-3.9-1.4h-3.2c0,0,0-4.5,0-4.5Z"/>
    <path class="st0" d="M588,902.6l-31,4.6c1,6.2,3,10.6,5.8,13.2s6.2,3.6,9.9,3c2.7-.4,5.2-1.5,7.4-3.4s4.3-5,6.2-9.4l3.8,1.6c-2,5.1-4.5,9-7.7,11.5s-7.2,4.2-12.2,4.9c-7.3,1.1-13.5-.2-18.6-4-5.1-3.7-8.2-9.1-9.3-16-1-6.9.4-13,4.2-18.3,3.8-5.3,9-8.5,15.6-9.4,4.5-.7,8.6-.3,12.1,1,3.5,1.4,6.5,3.7,8.8,7,2.3,3.3,4,7.8,4.9,13.5ZM556.3,902.9l14.8-2.2c1.4-.2,2.3-.7,2.8-1.5s.6-2.1.3-3.9c-.5-3.7-1.8-6.4-3.8-8.1-2-1.8-4.2-2.4-6.8-2.1-3.1.5-5.2,2.2-6.4,5.1-1.2,3-1.5,7.2-.9,12.7Z"/>
    <path class="st0" d="M635.2,907.6l1.3,4.3-30,9-1.3-4.3,3.7-1.1c1.5-.5,2.6-1.1,3.1-1.9.5-.8.6-1.7.3-2.7l-7.6-25.4c-.6-2-1.5-3.4-2.8-4.1-1.2-.7-2.7-.7-4.3-.2l-2.4.7-1.2-4,18-6.5,4.2,14c-.3-5,.4-9.1,2.3-12.5s4.5-5.5,7.9-6.5c2.8-.9,5.3-.8,7.4.2,2.1,1,3.5,2.7,4.2,5.1.6,2,.5,3.9-.2,5.5s-2,2.7-3.6,3.2c-1.5.4-2.9.3-4.3-.5-1.4-.8-2.3-2-2.8-3.7-.3-.9-.3-2-.1-3.2,0-.7,0-1.1,0-1.4-.1-.4-.3-.7-.6-.8-.3-.1-.6-.1-1,0-1.1.3-2.1,1.3-3,3-1.4,2.6-2.2,6.2-2.3,10.8-.1,4.6.5,9.1,1.8,13.3l2.8,9.3c.3,1.1.9,1.8,1.6,2.2.8.4,1.6.4,2.7.1l6.3-1.9Z"/>
    <path class="st0" d="M662,886.4c2.1-.9,4.1-.9,6.2,0s3.5,2.3,4.4,4.4c.9,2.1.9,4.2,0,6.3-.8,2.1-2.3,3.6-4.3,4.4-2,.9-4.1.9-6.2,0-2.1-.9-3.6-2.3-4.4-4.4-.9-2.1-.9-4.1,0-6.2.8-2.1,2.3-3.5,4.3-4.4Z"/>
    <path class="st0" d="M719.3,855.8l4.1-.3c.7,5.4,0,10.2-2.2,14.6-2.2,4.4-5.7,7.9-10.6,10.6-6.6,3.7-12.8,4.7-18.5,3.2-5.7-1.6-10.3-5.4-13.7-11.5-3.7-6.6-4.5-13.2-2.4-19.9s6.7-12,13.9-16.1c5.2-2.9,9.8-4.1,13.7-3.5,3.9.6,6.7,2.4,8.4,5.3,1.2,2.2,1.6,4.2,1,6.2-.5,1.9-1.8,3.5-3.7,4.6-1.7,1-3.4,1.2-4.9.8-1.6-.4-2.8-1.4-3.7-3-.8-1.4-1.1-3.3-1-5.7,0-1,0-1.7-.2-2-.3-.6-1-.8-2.1-.8-1.6,0-3.4.5-5.4,1.6-3.7,2-5.7,4.7-6.1,8-.5,4.3,1,9.6,4.5,15.9,3.5,6.3,7,10.1,10.6,11.4s7.1,1,10.6-.9c2.7-1.5,4.8-3.9,6.2-7s1.8-7,1.3-11.6Z"/>
    <path class="st0" d="M732.7,808.1c4-3,8.3-5,13-5.8,4.7-.8,8.8-.5,12.6,1.1s7.1,4.3,10.1,8.2c4.8,6.2,6.3,12.6,4.6,19.2-1.7,6.6-5.2,11.9-10.6,16-3.8,2.9-7.9,4.7-12.4,5.4s-8.7.2-12.6-1.4c-3.9-1.6-7.3-4.2-10-7.9-4.2-5.5-5.8-11.6-4.8-18.2s4.4-12.2,10.2-16.6ZM735.7,811.6c-2.6,2-3.9,4.8-3.6,8.3s2.5,8.2,7,14c4.6,6.1,8.6,9.7,11.9,10.8,3.3,1.1,6.3.7,8.9-1.3,2.7-2,4-4.9,3.8-8.5-.1-3.6-2.4-8.3-6.8-14.1-4.5-5.9-8.5-9.5-11.9-10.6-3.4-1.1-6.5-.6-9.2,1.4Z"/>
    <path class="st0" d="M852.4,750.1l3.3,3-18.1,20.1-3.3-3,1.9-2.1c1.1-1.3,1.7-2.4,1.6-3.3,0-1-.6-1.9-1.6-2.8l-14.4-13c-2.7-2.4-5.1-3.6-7.4-3.7s-4.3.9-6.1,2.9c-1.5,1.6-2.3,3.3-2.7,5.1-.3,1.8,0,3.9.9,6.2.9,2.4,2.2,4.3,3.9,5.7l13,11.7c.9.8,1.7,1.1,2.6,1s1.7-.5,2.4-1.3l2.5-2.7,3.3,3-18.4,20.4-3.3-3,2.1-2.3c1.1-1.2,1.7-2.2,1.6-3,0-1-.5-2-1.5-2.8l-15-13.5c-2.4-2.2-4.8-3.2-7.2-3.3-2.4,0-4.4.9-6.1,2.7-1.3,1.4-2.1,3.1-2.5,5-.4,1.9-.2,4,.6,6.2.8,2.3,1.8,4,3.1,5.1l13,11.8c1.3,1.2,2.4,1.8,3.3,1.7,1.2,0,2.3-.7,3.4-1.9l1.8-2,3.3,3-18.5,20.5-3.3-3,2.1-2.3c1.1-1.3,1.7-2.3,1.7-3.2s-.6-1.9-1.7-2.9l-20-18c-.9-.8-1.8-1.3-2.6-1.4s-1.7,0-2.7.5c-.7.4-1.8,1.4-3.3,3.1l-3.2-2.9,11.6-14.4c2.8,1.5,5.5,3.4,8.3,5.6-.8-4.9-.9-8.9-.2-12,.7-3.1,2.2-5.9,4.4-8.4,2.4-2.7,5-4.2,8-4.8,2.9-.5,6.1,0,9.6,1.6-.9-4.9-1-9.1-.3-12.4.8-3.3,2.2-6.2,4.4-8.6,3-3.4,6.5-5.1,10.4-5.1,3.9,0,7.8,1.7,11.7,5.3l15.9,14.4c1.1,1,2.1,1.4,3,1.4.9,0,1.8-.6,2.8-1.6l2-2.2Z"/>
  </g>
  <circle class="st1" cx="167.3" cy="504.5" r="4.5"/>
  <g>
    <path class="st0" d="M109.5,403.4l-2.2-2.7.4-1.5,10.7,2.6-.5,1.9c-3.3.2-5.9.9-7.9,2.3-2,1.4-3.3,3.2-3.8,5.3-.5,1.8-.4,3.5.3,4.9.7,1.4,1.7,2.3,3.1,2.7.8.2,1.7.2,2.5,0s1.6-.9,2.4-1.7,1.7-2.5,2.9-4.9c1.4-2.8,2.5-4.7,3.3-5.7,1.3-1.6,2.7-2.7,4.3-3.2s3.3-.6,5.2,0c2.8.7,4.8,2.3,6,4.7,1.4,2.9,1.7,6.1.8,9.6-.8,3.2-2.7,5.8-5.6,7.9l2.4,3.2-.4,1.5-11.4-3,.5-1.8c7-.1,11.2-2.9,12.6-8.5.6-2.3.5-4.2-.2-5.7-.7-1.5-1.9-2.5-3.4-2.9-1.1-.3-2.1-.3-3,.1-.9.4-1.7,1.1-2.5,2.1-.4.6-1.2,2-2.4,4.4-1.6,3.2-3,5.4-4.2,6.6-1.2,1.2-2.4,2-3.8,2.4-1.3.4-2.8.3-4.5,0-2.8-.7-4.8-2.3-6.1-4.6-1.3-2.3-1.5-5.1-.7-8.2.8-3,2.6-5.5,5.3-7.5Z"/>
    <path class="st0" d="M110,391.8l5.3-15.1,1.9.7-1.1,3.1c-.2.4-.1.8,0,1.2s.6.6,1.2.8l16.6,5.8c2.3.8,4.4.8,6,0,1.7-.8,2.9-2.3,3.7-4.5.6-1.6.7-3.2.5-4.7-.2-1.1-.7-2.2-1.7-3.3-1-1-2.3-1.9-4.1-2.5l-12.7-4.5c-1.6-.6-3-.6-4-.2s-1.8,1.3-2.2,2.5l-.2.4-1.9-.7,4-11.4,1.9.7-.3.8c-.4,1.2-.3,2.3.4,3.2.7.9,1.7,1.6,3,2.1l13.8,4.8c3.1,1.1,5.2,3,6.3,5.7,1.2,2.7,1.1,5.9-.2,9.5-.9,2.6-2.1,4.7-3.6,6.3s-3.1,2.6-4.7,2.9-3.5.1-5.7-.6l-16.8-5.9c-.8-.3-1.4-.3-1.8-.1-.4.2-.7.7-1,1.4l-.8,2.2-1.9-.7Z"/>
    <path class="st0" d="M123.8,353.7l7.6-17c1.3-2.9,3.1-4.8,5.4-5.9,2.3-1.1,4.6-1.1,6.8,0,1.7.8,3,1.9,3.8,3.5s1.1,3.4.9,5.3-.7,3.8-1.4,5.5l-2.4,5.4,9.4,4.2c.5.2,1,.3,1.4,0,.4-.2.7-.5,1-1l1.5-3.3,1.8.8-6.9,15.4-1.8-.8,1.2-2.6c.3-.6.3-1.1.2-1.5-.2-.4-.5-.8-1-1l-22.1-9.9c-.5-.2-1-.2-1.4,0-.4.2-.7.5-.9.9l-1.2,2.8-1.8-.8ZM142.8,349.6l1.6-3.6c.6-1.3.8-2.5.7-3.7,0-1.2-.4-2.2-1-3-.6-.8-1.7-1.5-3.4-2.3-2.4-1.1-4.3-1.2-5.8-.3-1.1.6-2.2,2-3.2,4.3-.6,1.3-.8,2.2-.8,2.6s.4.8.9,1l11.1,5Z"/>
    <path class="st0" d="M138.2,322.2l13.3-24.2,10,4.8-.9,1.7c-2.5-.9-4.4-1.3-5.8-1.3-1.3,0-2.5.4-3.5,1-1,.7-2,1.8-2.8,3.3l-2.1,3.8c-.3.6-.4,1.1-.4,1.5,0,.4.3.7.8.9l9.7,5.3.7-1.3c.8-1.5,1-2.9.6-4.2-.4-1.3-1.5-2.5-3.3-3.7l.9-1.7,12.9,7.1-.9,1.7c-2.2-1.1-4-1.4-5.3-1.1-1.3.3-2.5,1.4-3.4,3l-.6,1.1,10.3,5.7c.5.2.8.3,1.2.1.5-.2,1-.8,1.4-1.5l1.8-3.4c1.3-2.3,1.6-4.6.9-6.8-.7-2.3-2.4-4.4-5.2-6.4l.9-1.7,10.4,6.2-13.9,25.3-1.8-1,1.4-2.5c.3-.6.4-1.1.3-1.5-.1-.5-.4-.8-.9-1.1l-21.4-11.8c-.5-.2-.9-.3-1.2-.1-.4.2-.8.6-1.2,1.4l-1.2,2.2-1.8-1Z"/>
    <path class="st0" d="M156.3,289.9l9.2-13.8c1.5-2.2,3-3.9,4.5-4.9,1.5-1,3-1.6,4.5-1.6,1.5,0,2.8.4,4,1.2,1.9,1.3,2.9,3.2,3,5.8,0,1.9-.7,4.4-2.3,7.3,1.1-1.2,2.2-2,3.2-2.5,1-.4,2.2-.6,3.5-.5,1.8.1,3.7.5,5.9,1.2,1.4.5,2.3.7,2.7.7.4,0,.8-.2,1-.5.5-.8-.2-2-2.2-3.5l1.1-1.6c2.1,1.6,3.4,3.2,3.8,4.7.4,1.5,0,3.1-1,4.6-.8,1.1-1.6,1.9-2.5,2.3-.9.4-1.9.4-3.1.2-.7-.1-2.1-.6-4.2-1.5-2.5-1-4.3-1.6-5.3-1.8-1-.2-1.9,0-2.6.2-.7.3-1.4.9-1.9,1.7l-1.3,1.9,9.7,6.5c.4.3.8.4,1.2.3.5-.2,1-.5,1.3-1l1.6-2.4,1.7,1.1-8.9,13.4-1.7-1.1,1.4-2.1c.4-.5.5-1,.4-1.5,0-.5-.4-.9-.9-1.2l-19.9-13.3c-.5-.4-1-.5-1.5-.4-.4,0-.8.4-1.1.8l-1.5,2.2-1.7-1.1ZM174.5,288.6l1.5-2.2c1.3-2,1.9-3.9,1.6-5.7-.2-1.4-1.2-2.7-3.1-3.9-1.7-1.1-3.2-1.5-4.6-1.2-1.3.3-2.7,1.5-4.1,3.6-.7,1.1-1.1,1.9-1,2.4,0,.4.5,1,1.3,1.5l8.3,5.6Z"/>
    <path class="st0" d="M176,260.6l9.8-12.1,1.6,1.3-1.1,1.3c-.7.9-1.1,1.6-1.2,2,0,.4,0,.8.3,1,.3.2.8.5,1.6.7l20,5.9-8.7-15.4c-.6-1-1.2-1.8-2-2.4-.7-.6-1.4-.8-2.1-.6s-1.4.6-2,1.4l-.9,1.1-1.6-1.3,7.7-9.6,1.6,1.3-.6.7c-.5.6-.7,1.3-.7,2.2,0,.8.4,1.9,1.1,3.2l14,25.2-1.6,2-29.2-8.6c-1-.3-1.8-.4-2.3-.2-.6.2-1.2.7-1.9,1.6l-.4.5-1.6-1.3Z"/>
    <path class="st0" d="M200,231.6l11.1-11.9,1.5,1.4-2,2.2c-.4.5-.6.9-.7,1.3,0,.4.2.7.5,1.1l18,16.7c.4.4.8.6,1.2.5.5,0,1-.4,1.5-.9l1.8-1.9,1.5,1.4-11.1,11.9-1.5-1.4,1.7-1.8c.6-.6.9-1.2.9-1.6s-.2-.9-.6-1.2l-17.8-16.6c-.4-.4-.9-.6-1.3-.6-.4,0-.9.3-1.3.8l-1.9,2.1-1.5-1.4Z"/>
    <path class="st0" d="M231.1,203.7l-.5-3.4,1.1-1,7.7,7.9-1.4,1.3c-2.9-1.6-5.5-2.4-8-2.2-2.4.1-4.4,1-6.1,2.5-1.4,1.3-2.2,2.7-2.3,4.3-.2,1.6.3,2.9,1.2,3.9.6.6,1.3,1,2.1,1.2.8.2,1.8.1,2.9-.2,1.1-.4,2.8-1.2,5.1-2.6,2.7-1.6,4.6-2.7,5.8-3.1,1.9-.7,3.7-.8,5.3-.5,1.6.4,3.1,1.2,4.4,2.7,2,2.1,2.9,4.5,2.6,7.2-.3,3.2-1.8,6-4.4,8.5-2.4,2.3-5.4,3.5-9,3.7l.3,4-1.2,1.1-8.1-8.6,1.4-1.3c6,3.6,11,3.4,15.2-.5,1.7-1.6,2.7-3.3,2.9-4.9.2-1.7-.2-3.1-1.4-4.3-.8-.8-1.6-1.3-2.6-1.5s-2,0-3.2.5c-.7.3-2.1,1.1-4.4,2.5-3.1,1.8-5.5,3-7.1,3.4-1.7.4-3.1.4-4.5,0s-2.6-1.2-3.8-2.5c-2-2.1-2.9-4.5-2.7-7.1.2-2.7,1.4-5.1,3.8-7.3,2.3-2.1,5.1-3.3,8.5-3.5Z"/>
    <path class="st0" d="M250.7,183.1c2.4-1.8,5-3,7.9-3.4,2.9-.4,5.6,0,8.3,1s4.9,2.9,6.9,5.4c2.9,3.8,4.1,7.8,3.6,12.3-.5,4.4-2.6,8.1-6.2,10.9-2.4,1.9-5,3-7.8,3.4-2.8.4-5.5,0-8.1-1.1-2.6-1.1-4.9-2.9-6.9-5.5-3-3.8-4.2-7.9-3.7-12.3s2.5-7.9,6.1-10.7ZM252.1,184.6c-1.3,1-2.2,2.3-2.6,3.8-.4,1.5-.3,3.3.4,5.4.7,2.1,2.2,4.6,4.4,7.5,2.4,3,4.4,5.1,6.1,6.2,1.7,1.1,3.4,1.7,5,1.6,1.6,0,3.1-.6,4.5-1.7,2-1.6,3-3.7,2.8-6.4s-1.9-6.2-5.2-10.4c-2.3-3-4.4-5.1-6.1-6.2-1.7-1.1-3.3-1.6-4.9-1.6-1.6,0-3.1.6-4.4,1.7Z"/>
    <path class="st0" d="M270.4,169.3l14.1-8.8c2.3-1.4,4.3-2.3,6.1-2.6,1.8-.3,3.4-.2,4.7.4,1.3.6,2.4,1.5,3.2,2.7,1.2,2,1.4,4.1.3,6.5-.8,1.8-2.5,3.7-5.1,5.7,1.6-.6,2.9-1,3.9-.9,1.1,0,2.2.4,3.4,1,1.6.8,3.2,2,4.8,3.5,1,1,1.8,1.6,2.2,1.7.4.2.8.1,1.1,0,.8-.5.6-1.9-.6-4.1l1.6-1c1.3,2.3,1.8,4.3,1.5,5.8-.3,1.5-1.2,2.8-2.8,3.8-1.2.7-2.2,1.1-3.2,1-1,0-2-.4-2.9-1.1-.5-.4-1.6-1.4-3.2-3.1-1.9-2-3.2-3.2-4.1-3.8-.8-.6-1.7-.8-2.5-.9-.8,0-1.6.2-2.5.8l-2,1.2,6.2,9.9c.3.4.6.7,1,.8.6,0,1.1,0,1.6-.3l2.4-1.5,1.1,1.7-13.6,8.5-1.1-1.7,2.1-1.3c.5-.3.9-.7,1-1.2.1-.5,0-.9-.3-1.5l-12.7-20.3c-.3-.6-.7-.9-1.2-1-.4-.1-.9,0-1.3.3l-2.3,1.4-1.1-1.7ZM287.6,175.5l2.3-1.4c2-1.3,3.3-2.8,3.8-4.5.4-1.3,0-2.9-1.2-4.8-1.1-1.7-2.3-2.7-3.7-3-1.4-.3-3.1.3-5.2,1.6-1.1.7-1.8,1.3-1.9,1.7s0,1.1.6,1.9l5.3,8.5Z"/>
    <path class="st0" d="M302.5,149.6l24.8-12.2,5.5,9.7-1.7.8c-1.6-2.2-2.9-3.6-4-4.3s-2.3-1.1-3.5-1.2c-1.2,0-2.6.3-4.2,1.1l-3.9,1.9c-.6.3-1,.6-1.1,1-.2.4-.1.8,0,1.2l4.9,9.9,1.3-.7c1.5-.8,2.5-1.8,2.9-3.1.4-1.3.2-2.9-.6-5l1.7-.9,6.5,13.3-1.7.9c-1.2-2.1-2.4-3.4-3.7-3.9-1.3-.5-2.8-.3-4.5.5l-1.1.5,5.2,10.5c.2.5.5.7.9.8.6,0,1.2,0,2-.5l3.4-1.7c2.4-1.2,3.9-2.9,4.6-5.1.7-2.2.6-5-.6-8.2l1.7-.9,4.9,11.1-25.9,12.8-.9-1.8,2.6-1.3c.6-.3.9-.6,1.1-1.1.2-.4.1-.9-.1-1.4l-10.8-21.9c-.2-.5-.5-.7-1-.8-.4,0-1,0-1.8.5l-2.3,1.1-.9-1.8Z"/>
    <path class="st0" d="M354.8,129l.8-3.4,1.4-.5,4.1,10.2-1.8.7c-2.1-2.6-4.2-4.3-6.5-5.1-2.3-.8-4.5-.8-6.6,0-1.8.7-3,1.7-3.8,3.1s-.9,2.8-.3,4.1c.3.8.8,1.5,1.5,1.9.7.5,1.6.8,2.8.9,1.2,0,3.1,0,5.7-.5,3.1-.5,5.3-.7,6.6-.7,2,.1,3.7.6,5.1,1.6,1.4.9,2.4,2.3,3.1,4.2,1.1,2.7,1,5.3-.3,7.6-1.5,2.8-3.9,4.9-7.3,6.2-3.1,1.2-6.3,1.2-9.7,0l-1.2,3.8-1.5.6-4.2-11,1.8-.7c4.2,5.6,8.9,7.4,14.3,5.3,2.2-.8,3.7-2,4.5-3.5.8-1.5.9-3,.4-4.5-.4-1.1-1-1.8-1.8-2.3-.8-.5-1.9-.8-3.2-.8-.7,0-2.4.2-5,.6-3.5.5-6.2.7-7.9.5-1.7-.2-3.1-.8-4.2-1.6-1.1-.9-1.9-2.1-2.6-3.7-1-2.7-1-5.2.2-7.6,1.2-2.4,3.3-4.2,6.3-5.4,2.9-1.1,6-1.2,9.2,0Z"/>
    <path class="st0" d="M378.2,118.5l26.9-6.7,3.3,10.6-1.8.5c-1.1-2.4-2.1-4.1-3-5.1-.9-1-2-1.6-3.2-1.9-1.2-.3-2.6-.2-4.3.2l-4.2,1c-.7.2-1.1.4-1.3.7-.2.3-.3.7-.2,1.2l2.7,10.7,1.4-.4c1.7-.4,2.8-1.2,3.5-2.4.7-1.2.8-2.8.5-5l1.9-.5,3.6,14.3-1.9.5c-.7-2.3-1.7-3.9-2.8-4.6-1.2-.7-2.7-.9-4.5-.4l-1.2.3,2.8,11.4c.1.5.4.8.7,1,.5.2,1.2.2,2,0l3.7-.9c2.5-.6,4.4-2,5.6-4,1.2-2,1.6-4.7,1.2-8.1l1.9-.5,2.5,11.9-28,7-.5-1.9,2.8-.7c.6-.2,1.1-.4,1.3-.8s.3-.9.2-1.4l-5.9-23.7c-.1-.5-.4-.8-.8-1-.4-.2-1-.1-1.8,0l-2.4.6-.5-1.9Z"/>
    <path class="st0" d="M413.3,110l9.7-1.5,20.3,18.9-2.2-14.6c-.2-1.4-.8-2.5-1.8-3.3s-2.2-1.1-3.7-.9l-.3-2,11.5-1.7.3,2c-1.6.4-2.6,1.1-3.2,2-.6.9-.7,2.1-.5,3.7l3.7,24.5-2.5.4-23.1-21.8,2.6,17.2c.3,2,1,3.3,2,4.1,1,.8,2.2,1,3.6.8h.5c0,0,.3,1.9.3,1.9l-12.7,1.9-.3-2h.9c1.2-.3,2.2-1,2.9-2.1.7-1.1.9-2.5.7-4l-3.1-20.3c-1.1-1.1-2.4-1.6-3.9-1.3l-1.4.2-.3-2Z"/>
    <path class="st0" d="M491.6,104.8l1.4-3.2h1.6c0,0,.9,12.7.9,12.7h-2c-.7-3.6-2-6.3-3.7-8-1.8-1.7-3.7-2.5-5.9-2.5-2.4,0-4.4,1.3-5.9,3.6-1.5,2.3-2.2,6-2,10.9.2,5.2,1.2,9.1,3,11.5,1.5,1.9,3.5,2.9,6.2,2.8,2.7,0,4.9-1.2,6.7-3.2,1.3-1.5,2.1-3.7,2.6-6.5h1.9c-.3,3.6-1.6,6.5-3.9,8.7-2.2,2.2-5,3.3-8.4,3.4-4.4.1-8-1.3-11.1-4.3-3-3-4.6-6.9-4.8-11.7-.2-5.3,1.4-9.6,4.7-12.9,2.8-2.8,6.1-4.3,10-4.4,1.5,0,3,.1,4.3.6s2.8,1.2,4.3,2.3Z"/>
    <path class="st0" d="M518.8,102.2l10.6,29c.3.8.7,1.4,1,1.7.4.3.9.5,1.6.5h1.2c0,0,0,2,0,2l-14.9-.7v-2c0,0,1.5,0,1.5,0,1.1,0,1.9,0,2.3-.3s.6-.5.7-.9c0-.3,0-.7-.2-1.1l-2.2-6-11.9-.5-1.2,2.6c-.5,1.1-.8,1.9-.8,2.5,0,.9.3,1.7.9,2.3.7.6,1.6.9,2.8,1h1s0,2,0,2l-12.1-.5v-2c0,0,.8,0,.8,0,.8,0,1.5-.2,2.1-.6.9-.6,1.5-1.5,2.1-2.6l12.6-26.7h2.4ZM515,110.1l-5.6,11.9,10.1.4-4.5-12.3Z"/>
    <path class="st0" d="M538.1,106.1l.2-2,16.2,2-.2,2-2.7-.3c-.8,0-1.3,0-1.7.2-.3.3-.6.7-.6,1.4l-2.9,23.5c-.1,1,0,1.6.2,1.9.3.3,1,.5,2.1.7l4.5.6c1.7.2,3.4-.4,5-1.8,1.7-1.4,3.1-3.9,4.3-7.3l1.9.2-2.2,12-27.7-3.4.2-2,2.8.3c.6,0,1.1,0,1.4-.3.4-.3.6-.7.6-1.3l2.9-24.1c0-.6,0-1-.3-1.3-.3-.3-.8-.5-1.6-.6l-2.5-.3Z"/>
    <path class="st0" d="M571.6,108.6l16,3-.4,2-2.9-.5c-.6-.1-1.1,0-1.4.1-.3.2-.5.5-.6,1l-4.5,24.2c-.1.6,0,1,.2,1.3.3.4.8.6,1.6.8l2.6.5-.4,2-16-3,.4-2,2.5.5c.8.2,1.5.1,1.9,0,.4-.2.6-.6.8-1.1l4.5-23.9c.1-.6,0-1.1-.2-1.4-.3-.3-.7-.6-1.4-.7l-2.8-.5.4-2Z"/>
    <path class="st0" d="M593,112.5l16.5,4.4c3,.8,5.5,2.1,7.4,4,1.9,1.9,3.2,4.2,3.9,6.9s.6,5.5-.2,8.5c-.8,3.1-2.1,5.6-3.9,7.5-1.8,2-4,3.3-6.7,4s-5.4.7-8.1,0l-17.1-4.5.5-1.9,2.6.7c.6.2,1.1.1,1.5-.1.4-.3.7-.7.9-1.3l6.1-23.1c.2-.6.1-1.1-.1-1.5-.3-.4-.8-.7-1.6-.9l-2.3-.6.5-1.9ZM600.5,145.2c1.9.5,3.7.5,5.4-.1,1.7-.6,3.1-1.6,4.2-3.1,1.1-1.5,2.1-4,3-7.4,1-3.7,1.3-6.6,1.1-8.7-.3-2.2-.9-3.8-2-5-1.1-1.2-2.9-2.1-5.5-2.8-1.4-.4-2.3-.5-2.7-.3-.4.1-.7.5-.9,1.1l-6.1,23.3c-.2.7-.2,1.2,0,1.6.2.4.6.7,1.2.8l2.2.6Z"/>
    <path class="st0" d="M646.5,127.7l1.3,30.9c0,.9.2,1.5.5,1.9.3.4.7.7,1.3,1l1.1.4-.7,1.9-14-5.1.7-1.9,1.3.5c1,.4,1.8.5,2.3.4.5,0,.8-.3.9-.7.1-.3.2-.7.1-1.1l-.3-6.4-11.2-4.1-2,2.1c-.8.9-1.3,1.6-1.5,2.1-.3.9-.3,1.7.2,2.5s1.2,1.4,2.3,1.8l.9.3-.7,1.9-11.3-4.2.7-1.9.6.2c.7.3,1.5.3,2.2,0,1-.4,1.9-1,2.7-1.8l20.1-21.6,2.3.8ZM640.5,134.1l-9,9.6,9.5,3.5-.5-13.1Z"/>
    <path class="st0" d="M664.9,135.6l15.4,7.4c2.8,1.4,5,3.1,6.5,5.3,1.5,2.2,2.4,4.7,2.5,7.5.1,2.8-.5,5.5-1.8,8.3-1.4,2.9-3.1,5.1-5.2,6.6-2.1,1.6-4.6,2.5-7.3,2.7-2.8.2-5.4-.3-7.9-1.5l-16-7.7.9-1.8,2.4,1.1c.6.3,1.1.3,1.5.2.4-.2.8-.5,1.1-1.1l10.4-21.6c.3-.6.3-1.1.1-1.5-.2-.4-.6-.8-1.4-1.2l-2.1-1,.9-1.8ZM666,169.2c1.8.9,3.5,1.2,5.3.9,1.8-.2,3.4-1,4.7-2.2s2.8-3.5,4.4-6.7c1.6-3.4,2.5-6.2,2.7-8.4s-.2-3.9-1-5.3c-.9-1.4-2.5-2.6-4.8-3.8-1.3-.6-2.2-.9-2.6-.9-.4,0-.8.4-1.1,1l-10.5,21.7c-.3.6-.4,1.2-.3,1.6s.5.8,1.1,1l2.1,1Z"/>
    <path class="st0" d="M712.7,160.3l13.1,8.7-1.1,1.7-2.1-1.4c-.7-.5-1.2-.7-1.6-.6-.4,0-.8.3-1.1.8l-7.8,11.7,15.4-4.2c.9-.3,1.5-.6,1.8-1.1.3-.4.3-.8.2-1.3-.2-.6-.7-1.1-1.4-1.6l-.7-.5,1.1-1.7,10.9,7.3-1.1,1.7-.7-.5c-1-.7-2-1-3.2-1.1-1.7,0-3.7.2-5.8.8l-6,1.6-1.2,18.7c0,.8,0,1.5.4,2,.4.7.9,1.3,1.4,1.7l1,.7-1.1,1.7-13-8.6,1.1-1.7,1.3.9c.7.5,1.3.7,1.7.7.4,0,.7-.1.9-.4,0-.1.1-.3.1-.6l.8-13.4-5.9,1.6-3.9,5.8c-.3.5-.4.9-.3,1.3,0,.4.3.7.8,1l2.4,1.6-1.1,1.7-12.9-8.6,1.1-1.7,1.9,1.3c.5.4,1,.5,1.5.5.4,0,.8-.3,1.1-.8l13.6-20.5c.3-.4.4-.8.2-1.2-.1-.4-.5-.8-1-1.1l-1.9-1.3,1.1-1.7Z"/>
    <path class="st0" d="M757.8,191.7c2.3,1.9,4,4.2,5,6.9,1,2.7,1.3,5.5.8,8.3-.5,2.8-1.7,5.4-3.7,7.9-3,3.7-6.8,5.8-11.2,6.2s-8.4-.8-12-3.7c-2.4-1.9-4-4.3-5-6.9s-1.2-5.4-.7-8.2c.5-2.8,1.7-5.4,3.8-7.9,3.1-3.7,6.8-5.8,11.2-6.3,4.4-.5,8.3.7,11.8,3.6ZM756.6,193.4c-1.3-1.1-2.8-1.7-4.3-1.7-1.6,0-3.3.5-5.2,1.6-1.9,1.1-4,3.1-6.3,5.9-2.4,3-4,5.4-4.7,7.4-.7,2-.9,3.7-.5,5.3s1.3,2.9,2.6,4c2,1.6,4.3,2.1,6.8,1.4s5.6-3.2,9.1-7.4c2.4-2.9,4-5.4,4.7-7.3.7-1.9.9-3.6.4-5.2-.4-1.6-1.3-2.9-2.6-4Z"/>
    <path class="st0" d="M787.2,223l3.4-.6,1.1,1.1-7.6,7.9-1.4-1.4c1.5-2.9,2.1-5.6,1.9-8-.2-2.4-1.1-4.4-2.7-6-1.4-1.3-2.8-2.1-4.4-2.2-1.6-.1-2.9.4-3.9,1.4-.6.6-1,1.3-1.2,2.2-.2.8,0,1.8.3,2.9.4,1.1,1.3,2.8,2.8,5,1.7,2.6,2.8,4.5,3.3,5.7.7,1.9,1,3.7.7,5.3-.3,1.6-1.1,3.1-2.5,4.5-2.1,2.1-4.4,3-7.1,2.9-3.2-.2-6.1-1.6-8.7-4.1-2.4-2.3-3.7-5.3-4-8.8l-4,.5-1.1-1.1,8.3-8.4,1.3,1.3c-3.4,6.1-3,11.2,1,15.2,1.7,1.6,3.3,2.5,5,2.7,1.7.1,3.1-.4,4.2-1.5.8-.8,1.3-1.7,1.4-2.6.1-.9,0-2-.6-3.2-.3-.6-1.2-2.1-2.6-4.3-2-3-3.2-5.3-3.7-7s-.6-3.1-.2-4.5c.3-1.3,1.1-2.6,2.3-3.8,2-2.1,4.4-3.1,7-3,2.7,0,5.2,1.2,7.5,3.5,2.2,2.2,3.5,5,3.9,8.4Z"/>
    <path class="st0" d="M797.8,230.2l9.5,11.2-1.5,1.3-1.4-1.7c-.4-.5-.8-.7-1.2-.8-.4,0-.8,0-1.1.4l-8,6.7,7.8,9.3,7.5-6.4c.6-.5.9-1,.9-1.4,0-.4-.2-1-.7-1.5l-1.2-1.4,1.5-1.3,9.5,11.3-1.5,1.3-1.3-1.5c-.5-.6-.9-.9-1.4-1-.4,0-.9.1-1.3.5l-18.3,15.5c-.5.5-.8.9-.9,1.4,0,.5.1.9.5,1.4l1.4,1.7-1.5,1.3-9.5-11.3,1.5-1.3,1.4,1.7c.4.5.8.7,1.2.7s.8-.2,1.3-.6l8.7-7.4-7.8-9.3-8.7,7.4c-.5.4-.7.8-.8,1.2,0,.4,0,.7.4,1.1l1.7,2-1.5,1.3-9.5-11.2,1.5-1.3,1.5,1.8c.4.4.7.6,1.1.6s.8-.2,1.3-.6l18.3-15.5c.6-.5.9-.9.9-1.4,0-.5-.2-1-.7-1.5l-1.2-1.4,1.5-1.3Z"/>
    <path class="st0" d="M823.4,261.1l15.8,22.7-8.8,6.9-1.1-1.6c1.9-1.9,3.1-3.4,3.7-4.6s.8-2.4.6-3.6c-.1-1.2-.7-2.5-1.7-4l-2.5-3.6c-.4-.6-.8-.9-1.2-1s-.8,0-1.2.3l-9,6.3.8,1.2c1,1.4,2.1,2.2,3.5,2.4,1.3.2,2.9-.2,4.8-1.3l1.1,1.6-12.1,8.4-1.1-1.6c1.9-1.5,3-2.9,3.3-4.3s-.1-2.8-1.2-4.4l-.7-1-9.6,6.7c-.4.3-.6.6-.6,1,0,.6.3,1.2.7,1.9l2.2,3.1c1.5,2.2,3.4,3.4,5.7,3.8,2.3.4,5-.2,8-1.8l1.1,1.6-10.2,6.5-16.5-23.7,1.6-1.1,1.6,2.3c.4.5.8.8,1.2.9.5,0,.9,0,1.4-.3l20.1-14c.4-.3.6-.6.6-1.1s-.2-1-.7-1.7l-1.4-2.1,1.6-1.1Z"/>
    <path class="st0" d="M844.3,291.6l8.2,14.4c1.3,2.3,2.1,4.4,2.4,6.2.2,1.8,0,3.4-.6,4.7-.6,1.3-1.6,2.3-2.8,3.1-2,1.2-4.2,1.2-6.5,0-1.7-.8-3.6-2.6-5.5-5.3.6,1.6.8,2.9.8,4s-.4,2.2-1.1,3.4c-.9,1.6-2.1,3.1-3.7,4.7-1,1-1.6,1.7-1.8,2.1-.2.4-.2.8,0,1.1.5.8,1.8.7,4.1-.4l.9,1.6c-2.4,1.2-4.3,1.6-5.9,1.3-1.5-.3-2.8-1.3-3.7-3-.7-1.2-1-2.3-.9-3.3,0-1,.5-1.9,1.2-2.8.4-.5,1.5-1.6,3.2-3.1,2-1.8,3.4-3.1,3.9-3.9s.9-1.6,1-2.4c0-.8-.2-1.6-.7-2.5l-1.2-2-10.2,5.8c-.4.3-.7.6-.8,1,0,.6,0,1.1.3,1.6l1.4,2.5-1.7,1-8-14,1.7-1,1.2,2.2c.3.6.7.9,1.2,1,.5.1.9,0,1.5-.3l20.8-11.9c.6-.3.9-.7,1-1.1.1-.4,0-.9-.2-1.3l-1.3-2.3,1.7-1ZM837.4,308.6l1.3,2.3c1.2,2.1,2.6,3.4,4.4,4,1.3.4,2.9,0,4.9-1,1.8-1,2.8-2.2,3.1-3.5.3-1.3-.2-3.1-1.4-5.3-.7-1.2-1.2-1.8-1.6-2s-1.1,0-2,.5l-8.7,5Z"/>
    <path class="st0" d="M874.3,356.1l3.4.7.6,1.4-10,4.5-.8-1.8c2.5-2.2,4.1-4.4,4.8-6.7.7-2.3.6-4.5-.3-6.6-.8-1.7-1.8-3-3.3-3.7-1.4-.7-2.8-.7-4.1-.2-.8.3-1.4.9-1.9,1.6-.5.7-.7,1.7-.8,2.8,0,1.2.2,3.1.7,5.7.6,3.1.9,5.3.9,6.5,0,2-.5,3.8-1.4,5.2-.9,1.4-2.2,2.5-4,3.3-2.7,1.2-5.2,1.2-7.6,0-2.9-1.4-5.1-3.8-6.5-7.1-1.3-3-1.4-6.3-.4-9.7l-3.9-1.1-.6-1.5,10.8-4.7.7,1.7c-5.4,4.4-7,9.2-4.7,14.5.9,2.2,2.1,3.6,3.7,4.4,1.5.8,3,.8,4.5.2,1-.4,1.8-1.1,2.3-1.9.5-.8.7-1.9.7-3.2,0-.7-.3-2.4-.8-5-.7-3.5-.9-6.1-.8-7.8.2-1.7.7-3.1,1.5-4.2.8-1.1,2-2,3.6-2.7,2.7-1.1,5.2-1.2,7.6-.1,2.4,1.1,4.3,3.1,5.6,6.1,1.2,2.9,1.4,5.9.4,9.2Z"/>
    <path class="st0" d="M858.6,378.2c.3.9.3,1.9-.1,2.8-.4.9-1.1,1.5-2,1.9-1,.4-1.9.3-2.8,0-.9-.4-1.6-1.1-1.9-2-.3-.9-.3-1.8.1-2.8s1.1-1.5,2.1-1.9c.9-.3,1.9-.3,2.8.1s1.5,1.1,1.9,2Z"/>
    <path class="st0" d="M890.8,403.6l3.5.5.5,1.5-12,4.2-.6-1.9c3.3-1.7,5.6-3.6,6.8-5.7,1.2-2.1,1.5-4.3.8-6.4-.7-2.3-2.4-3.9-5-4.7-2.7-.8-6.3-.5-11.1.9-5,1.5-8.5,3.5-10.4,5.9-1.5,1.9-1.8,4.2-1.1,6.7s2.4,4.5,4.9,5.7c1.8.9,4.1,1.1,6.9.8l.6,1.8c-3.6.6-6.7.1-9.4-1.5s-4.5-4-5.5-7.2c-1.3-4.2-.9-8.1,1.2-11.8,2.1-3.7,5.4-6.3,10-7.7,5.1-1.6,9.7-1.2,13.7,1.1,3.4,2,5.7,4.8,6.9,8.5.4,1.5.6,2.9.6,4.3,0,1.4-.5,3-1.1,4.8Z"/>
    <path class="st0" d="M872.4,423.3c.2,1,0,1.9-.4,2.7-.5.9-1.3,1.4-2.3,1.6-1,.2-1.9,0-2.8-.4-.9-.5-1.4-1.3-1.6-2.2-.2-1,0-1.9.4-2.7.5-.9,1.3-1.4,2.3-1.6,1-.2,1.9,0,2.8.4.9.5,1.4,1.3,1.6,2.2Z"/>
  </g>
</svg>