<?xml version="1.0" encoding="UTF-8"?>
<svg id="Capa_1" xmlns="http://www.w3.org/2000/svg" version="1.1" xmlns:xlink="http://www.w3.org/1999/xlink" viewBox="0 0 2078.5 740">
  <!-- Generator: Adobe Illustrator 29.2.0, SVG Export Plug-In . SVG Version: 2.1.0 Build 108)  -->
  <defs>
    <style>
      .st0 {
        fill: none;
      }

      .st1 {
        clip-path: url(#clippath-1);
      }

      .st2 {
        clip-path: url(#clippath);
      }
    </style>
    <clipPath id="clippath">
      <rect class="st0" x="-114" y="-278.3" width="2306.4" height="1296.7"/>
    </clipPath>
    <clipPath id="clippath-1">
      <rect class="st0" x="-114" y="-278.3" width="2306.4" height="1296.7"/>
    </clipPath>
  </defs>
  <g id="Capa_11" data-name="Capa_1">
    <g class="st2">
      <g class="st1">
        <g>
          <path d="M633.4,732.1c-1-.3-1.6-2.2-1.5-3.3,3.1-105.8-3.9-213.8,0-319.4,1.6-43.6,9.4-90.3,35.2-126.4,63.4-88.8,210.6-102.7,295.5-37.9,52.8,40.3,70.4,105.9,72.9,169.9,4,103.6-3.1,209.8,0,313.7.2,1-.7,3.3-1.5,3.3h-105.4v-207.4s-1.3-1.4-1.4-1.4h-188.5v207.4s-1.3,1.4-1.4,1.4h-103.9,0ZM739.2,443h188c.7,0,1.3-1.6,1.4-2.4.9-5,.2-17,0-22.7-1.7-58.2-20.6-110.6-87.4-114.8-77.4-4.8-101.8,50.6-103.6,117.6,0,5.1-.8,15.5,0,19.9.2.9.6,2.1,1.4,2.4"/>
          <path d="M1832,204.9h106.8v320.8c-3,62.9-21,126.7-72.8,166.1-82.1,62.5-223,51.2-289-30.2-31.1-38.3-38.8-85-41.6-133.1V204.9h105.4c.8,0,1.7,2.3,1.5,3.3v326c0,64.1,48.5,110.1,113.4,98.3,59.8-10.9,77.8-62.2,76.5-117.1V204.9h-.2Z"/>
          <path d="M1459.7,360.8h-106.8c-3.1-34.1-18.8-58.6-54.5-63.2-28-3.6-62.5,5.4-72.9,34.6-24.5,68.5,82,88.3,126.4,107.5,71.1,30.7,115.3,72.6,110.6,155.9-4.9,87.2-78.5,139.6-161.1,144.1-102.9,5.6-186.7-42.6-190.4-152.6,0-1.5-2.4-9,.5-9h101.1s1.4,1.3,1.4,1.4v16.1c0,4,5.7,16.4,8.1,20.2,35,56.9,150.1,27.8,127-41-12.6-37.5-82.2-52.1-116-66.4-76.6-32.6-126.7-75.8-117.3-166.8,11.2-108.2,114.8-153.6,213.4-134.3,78.2,15.3,125.2,75.2,130.4,153.5"/>
          <path d="M560.2,206.8v357.6c-1.9,27-5.7,53.7-16.8,78.5-36.2,80.9-132.3,90.3-210.9,88.2v-93.5c7.8-.5,15.4,1.1,23.2,1,65.6-.6,97.7-30.2,97.8-96.8v-248h-121v-86.9h227.8-.1Z"/>
          <path d="M299.3,125.5l-26.4,9.5c-18.7-58.3-74.5-97.4-133.9-105.7-33.5-4.6-65.6.6-97.6,10.3,11.3,51.2,34,102.3,78.1,133,33.2,23.1,68.4,25.8,106.9,14.6,8.2-2.4,23.2-7.8,30.2-12.3,3.5-2.2-2.5-3.3-5.1-4.8-11.1-6.3-22.4-12.9-33.8-18.2-17.6,6.3-34.6,14.6-51.9,21.7-1.5-.3-10.7-21.1-9.9-24.4l33.9-13.8-35.7-20.1c-1.6-.5-3,.3-4.5.7-14.4,4.4-29.1,13.9-43.9,18l-7.5-21.7,29.3-11.4c1.5-2-21-11.3-21.6-12.4-1.6-2.5,7.8-15.5,9-18.9l184.6,102.6c.4,1.6-5.5,5.3-6.9,6.3-51.6,37.4-122.4,52.5-179.6,18.5C51.1,160.2,23.4,91.6,9.5,23.9,28.4,14.9,49.9,7.6,70.6,3.8c89.9-16.5,184.1,19.5,223.1,105.2,1.1,2.4,6.9,15.1,5.7,16.4"/>
          <path d="M2011.3,192c38.9-2.4,67,33.7,54.8,70.8-11.6,35.4-56.9,47.6-85.3,23.4-36.3-31-17-91.2,30.5-94.2M2009.4,203.3c-55.4,7.6-43.1,94.4,14.6,83.6,52.2-9.7,39.4-91-14.6-83.6"/>
          <path d="M2040.8,272h-13.7c-1.2,0-7.6-16-10.8-18.5-2.5-2-6.4-2.3-9.5-2.3v20.8h-15.1v-55.7h29.8c1.2,0,6.6,2.5,8,3.4,9.2,6.3,6.5,22.3-3.7,26.4,7.8,5.6,12.7,16.8,15.1,26M2006.8,240.8c18.9,3.2,18.8-17.2,0-14.2v14.2Z"/>
        </g>
      </g>
    </g>
  </g>
</svg>