<?xml version="1.0" encoding="UTF-8"?>
<svg xmlns="http://www.w3.org/2000/svg" version="1.1" xmlns:xlink="http://www.w3.org/1999/xlink" viewBox="0 0 2500 740">
  <!-- Generator: Adobe Illustrator 29.2.0, SVG Export Plug-In . SVG Version: 2.1.0 Build 108)  -->
  <defs>
    <style>
      .st0 {
        fill: #29317e;
      }

      .st1 {
        fill: none;
      }

      .st2 {
        fill: #72aa52;
      }

      .st3 {
        clip-path: url(#clippath-1);
      }

      .st4 {
        fill: #fcfcfd;
      }

      .st5 {
        display: none;
      }

      .st6 {
        fill: #205d39;
      }

      .st7 {
        clip-path: url(#clippath);
      }
    </style>
    <clipPath id="clippath">
      <rect class="st1" x="96.8" y="-278.4" width="2306.4" height="1296.7"/>
    </clipPath>
    <clipPath id="clippath-1">
      <rect class="st1" x="96.8" y="-278.4" width="2306.4" height="1296.7"/>
    </clipPath>
  </defs>
  <g id="Capa_1" class="st5">
    <g class="st7">
      <g class="st3">
        <g>
          <path class="st6" d="M844.2,732c-1-.3-1.6-2.2-1.5-3.3,3.1-105.8-3.9-213.8,0-319.4,1.6-43.6,9.4-90.3,35.2-126.4,63.4-88.8,210.6-102.7,295.5-37.9,52.8,40.3,70.4,105.9,72.9,169.9,4,103.6-3.1,209.8,0,313.7.2,1-.7,3.3-1.5,3.3h-105.4v-207.4s-1.3-1.4-1.4-1.4h-188.5v207.4s-1.3,1.4-1.4,1.4h-103.9ZM950,442.9h188c.7,0,1.3-1.6,1.4-2.4.9-5,.2-17,0-22.7-1.7-58.2-20.6-110.6-87.4-114.8-77.4-4.8-101.8,50.6-103.6,117.6-.1,5.1-.8,15.5,0,19.9.2.9.6,2.1,1.4,2.4"/>
          <path class="st6" d="M2042.8,204.8h106.8v320.8c-3,62.9-21,126.7-72.8,166.1-82.1,62.5-223,51.2-289-30.2-31.1-38.3-38.8-85-41.6-133.1V204.8h105.4c.8,0,1.7,2.3,1.5,3.3v326c0,64.1,48.5,110.1,113.4,98.3,59.8-10.9,77.8-62.2,76.5-117.1V204.8Z"/>
          <path class="st6" d="M1670.5,360.7h-106.8c-3.1-34.1-18.8-58.6-54.5-63.2-28-3.6-62.5,5.4-72.9,34.6-24.5,68.5,82,88.3,126.4,107.5,71.1,30.7,115.3,72.6,110.6,155.9-4.9,87.2-78.5,139.6-161.1,144.1-102.9,5.6-186.7-42.6-190.4-152.6,0-1.5-2.4-9,.5-9h101.1s1.4,1.3,1.4,1.4v16.1c0,4,5.7,16.4,8.1,20.2,35,56.9,150.1,27.8,127-41-12.6-37.5-82.2-52.1-116-66.4-76.6-32.6-126.7-75.8-117.3-166.8,11.2-108.2,114.8-153.6,213.4-134.3,78.2,15.3,125.2,75.2,130.4,153.5"/>
          <path class="st6" d="M771,206.7v357.6c-1.9,27-5.7,53.7-16.8,78.5-36.2,80.9-132.3,90.3-210.9,88.2v-93.5c7.8-.5,15.4,1.1,23.2,1,65.6-.6,97.7-30.2,97.8-96.8v-248h-121v-86.9h227.8Z"/>
          <path class="st2" d="M510.1,125.4l-26.4,9.5c-18.7-58.3-74.5-97.4-133.9-105.7-33.5-4.6-65.6.6-97.6,10.3,11.3,51.2,34,102.3,78.1,133,33.2,23.1,68.4,25.8,106.9,14.6,8.2-2.4,23.2-7.8,30.2-12.3,3.5-2.2-2.5-3.3-5.1-4.8-11.1-6.3-22.4-12.9-33.8-18.2-17.6,6.3-34.6,14.6-51.9,21.7-1.5-.3-10.7-21.1-9.9-24.4l33.9-13.8-35.7-20.1c-1.6-.5-3,.3-4.5.7-14.4,4.4-29.1,13.9-43.9,18l-7.5-21.7,29.3-11.4c1.5-2-21-11.3-21.6-12.4-1.6-2.5,7.8-15.5,9-18.9l184.6,102.6c.4,1.6-5.5,5.3-6.9,6.3-51.6,37.4-122.4,52.5-179.6,18.5-61.9-36.8-89.6-105.4-103.5-173.1,18.9-9,40.4-16.3,61.1-20.1,89.9-16.5,184.1,19.5,223.1,105.2,1.1,2.4,6.9,15.1,5.7,16.4"/>
          <path class="st6" d="M2222.1,191.9c38.9-2.4,67,33.7,54.8,70.8-11.6,35.4-56.9,47.6-85.3,23.4-36.3-31-17-91.2,30.5-94.2M2220.2,203.2c-55.4,7.6-43.1,94.4,14.6,83.6,52.2-9.7,39.4-91-14.6-83.6"/>
          <path class="st6" d="M2251.6,271.9h-13.7c-1.2,0-7.6-16-10.8-18.5-2.5-2-6.4-2.3-9.5-2.3v20.8h-15.1v-55.7h29.8c1.2,0,6.6,2.5,8,3.4,9.2,6.3,6.5,22.3-3.7,26.4,7.8,5.6,12.7,16.8,15.1,26M2217.6,240.7c18.9,3.2,18.8-17.2,0-14.2v14.2Z"/>
        </g>
      </g>
    </g>
  </g>
  <g id="Capa_2">
    <g>
      <path class="st0" d="M1174.8,476.7c65.2,63.4,183,34.5,207.7-53.8,27.2-97.4-45.1-174.5-140.7-180.8-16.8-1.1-66.3,7.3-74.9-1.4-23.3-23.6,45.4-73.1,64.7-81.5,114-49.2,229.9,34.5,259.6,145.4,61.7,230-199.7,418.1-384,264.6-77.8-64.9-70.4-132.2-101.3-217.3-70.2-193.4-317.4-84.9-254.3,68.5,24.3,59,107.5,94.5,168.2,94.3,18.9,0,65.1-14.2,46.5,26.2-42.5,92.3-189.4,85.7-257.3,21.6-217.2-205,41.2-550.3,299.8-389.4,129,80.3,81.5,221.3,166,303.5Z"/>
      <path class="st0" d="M1674.7,540.9v194.1c0,.4-4.6,5-5,5h-107.8V139.4h112.8v56.4c58.5-64.8,144.6-80.4,227.1-56.2,196.2,57.5,195,377.8,11.8,452.7-81.9,33.5-182.6,20.5-238.9-51.4ZM1786.8,219.9c-149.6,17.8-150.1,269.4-10,293.6,212,36.6,214-317.9,10-293.6Z"/>
      <path class="st0" d="M563,0v562.4c3,22.5,6.6,45.7,26.7,59.7,4.2,2.9,19.8,6.9,19.8,10.1v107.8c-50.8-2.1-106.4-25.4-134.1-70-18.3-29.3-21.2-60.7-25.3-94.2L453.5,0h109.5Z"/>
      <path class="st4" d="M1786.8,219.9c204-24.3,202,330.2-10,293.6-140.1-24.2-139.6-275.8,10-293.6Z"/>
    </g>
  </g>
</svg>