<?xml version="1.0" encoding="UTF-8"?>
<svg id="Capa_1" xmlns="http://www.w3.org/2000/svg" version="1.1" xmlns:xlink="http://www.w3.org/1999/xlink" viewBox="0 0 1000 1000">
  <!-- Generator: Adobe Illustrator 29.2.0, SVG Export Plug-In . SVG Version: 2.1.0 Build 108)  -->
  <defs>
    <style>
      .st0 {
        fill: #1d1d1b;
      }

      .st1 {
        fill: none;
      }

      .st2 {
        fill: #fefdfe;
      }

      .st3 {
        font-size: 98px;
      }

      .st3, .st4 {
        font-family: CenturySchoolbook-Bold, 'Century Schoolbook';
        font-weight: 700;
      }

      .st4 {
        font-size: 44px;
      }
    </style>
    <path id="path" d="M146.83,738.16s112.84,194.41,357.04,194.41,347.65-176.63,358.46-194.02c.56-.9.84-1.37.84-1.37"/>
    <path id="path1" d="M123.67,509.88c0-159.29,120.74-375.59,372.67-375.59s380,208.34,380,375.59"/>
  </defs>
  <path d="M480.13,41.49c394.49-17.66,631.01,433.16,386.22,744.87-208.85,265.94-626.05,221.95-775.49-80.46C-55.42,409.92,151.29,56.21,480.13,41.49ZM811.58,174.48C560.15-60.51,147.15,62.8,67.6,396.21-15.65,745.18,323.65,1047.05,660.67,922.34c310.06-114.73,393.72-520.92,150.91-747.86Z"/>
  <path class="st2" d="M811.58,174.48C560.15-60.51,147.15,62.8,67.6,396.21-15.65,745.18,323.65,1047.05,660.67,922.34c310.06-114.72,393.73-520.92,150.91-747.86ZM740.72,734.15c-171.21,174.32-467.86,108.37-549.12-121C98.24,349.65,352.26,95.68,615.72,189.03c227.15,80.48,294.56,372.49,125,545.12Z"/>
  <path d="M740.72,734.15c-171.21,174.32-467.86,108.37-549.12-121.01C98.24,349.65,352.26,95.68,615.72,189.03c227.15,80.48,294.56,372.49,125,545.13ZM491.12,205.33c-246.27,11.54-372.85,300.18-211.1,488.24,136.69,158.93,392.94,125.45,486.56-60.93,100.3-199.68-52.74-437.74-275.45-427.31Z"/>
  <path class="st2" d="M766.57,632.63c-93.62,186.39-349.86,219.87-486.55,60.93-161.75-188.05-35.17-476.7,211.1-488.23,222.71-10.44,375.75,227.63,275.45,427.3Z"/>
  <path class="st2" d="M450.36,889.35c1.93-4.95.57-26.26,5.71-27.79,4.48-1.33,14.89,2.3,16.05,7.53,3.55,15.93-6.42,24.49-21.77,20.26Z"/>
  <path class="st2" d="M313.5,847.39c-.9-1.2,12.72-25.7,13.98-26.5,4.51-2.87,15.66,6.48,16.05,12.05.31,4.46-4.97,14.78-8.7,17.32-8.12,5.5-13.83-.07-21.33-2.86Z"/>
  <path class="st2" d="M386.42,859.39l1,27.96c-.65.68-17.2-4.95-17.95-5.52-1.21-.93-1.31-1.08-.55-2.49,1.12-2.08,12.62-16.21,14.69-18.28.88-.89.86-2.18,2.81-1.67Z"/>
  <path class="st2" d="M669.85,136.38c5.94,7.27-4.84,36.77-18.55,25.55-.68-1.09.2-3.39.55-4.67.71-2.55,8.01-22.21,8.79-23.17,1.96-2.4,7.83.61,9.21,2.29Z"/>
  <polygon class="st2" points="632.18 141.09 624.17 137.56 632.18 126.11 632.18 141.09"/>
  <path class="st2" d="M519.28,105.12l3.01,12.98c-2.36-.26-8.83,1.32-8.84-2.29.55-.86,3.75-13.23,5.83-10.7Z"/>
  <path class="st2" d="M832.71,288.11c6.77-1.94,10.32,14.71.62,15.61-2.79.26-8.41-5.58-8.31-8.3.06-1.77,6.23-6.89,7.69-7.31Z"/>
  <path class="st2" d="M307.25,152.28c9.76-1.72,8.78,14.74.72,14.81-2.12.02-8.01-10.51-5.47-12.52,1.46-.68,3.22-2.03,4.76-2.3Z"/>
  <path class="st2" d="M596.35,110.26c3.21-2.08,9.52,1.68,10.93,5.28,2.16,5.52-1.16,21.65-6.12,24.99-2.94,1.98-10.38,1.81-10.99-1.95-.23-1.43,4.96-27.53,6.18-28.32Z"/>
  <g>
    <path class="st0" d="M496.43,474.38c1.47-3.68,6.47-11.08,9.01-14.47,1.09-1.45,8.32-10.18,9.97-8.52-.64,6.68,2.98,12.62,6.59,17.9l63.99,51.96c1.96.35,14.17-16.51,14.08-19.23-.27-8.78-20.93-21.2-19.52-31.91.27-2.07,16.41-21.69,17.81-22.28,1.85-.78,4.49,1.84,5.98,3.06,6.27,5.13,29.85,27.19,33.95,32.98,2.94,4.15,3.89,7.4,2.53,12.51-.81,3.05-12.86,17.53-15.8,16.84-2.71-.63-11.1-12.64-16.96-10.73-5.24,4.23-18.03,18.98-14.2,25.82,26.3,21.92,59.67,40.3,39.93,79.91-3.25,6.52-10.4,16.81-17.47,19,0,0,.81-15.13,0-21.48s-5.74-9.27-7.52-10.46l-78.07-58.75c-6.43,1.2-11.49,8.1-12.23,14.36-2.38,20.09,35.36,26.97,38.64,46.1,5.3,30.97-42.31,28.09-61.08,26.11-1.03-.11-4.69-.39-4.61-1.86,10.42-1.61,23.45-9.74,13.64-20.68-.42-.47-1.56-.19-1.66-.32-8.58-10.4-9.95-22.09-5.99-34.97,2.25-7.34,8-17.62,12.96-23.5,1.9-2.26,10.85-9.3,11.05-10.02.16-.56.1-1.75-.24-2.28-7.86-5.76-15.7-13.86-20.78-22.14-6.45-10.51-8.75-21.06-4-32.97Z"/>
    <path class="st0" d="M496.43,474.38c-4.76,11.91-2.45,22.46,4,32.97-2.38.32-4.6,5.46-5.18,5.8-5.01,2.93-11.44-13.11-19.84-10.4-3.72,1.2-19.58,20.86-13.63,26.29,13.91,10.24,26.87,21.09,35.66,36.26-3.95,12.88-2.59,24.56,5.99,34.97-2.45,5.86-13.8,11.05-19.02,7.53-.84-.57-2.18-5.58-3.53-7.46s-4.1-4.34-5.96-6.03c-22.27-20.19-52.26-36.68-75.07-56.85-7.65-3.77-15.71,11.79-13.87,18.87,4.96,19.05,49.6,27.1,37.4,52.31-10.14,20.94-46.33,15.59-64.81,13.6l11.63-5.47c2.16-1.01,4-2.66,5.06-4.79,4.08-8.21-7.43-13.43-10.17-21.72-5.18-15.65,2.26-36.14,12.49-48.39,3.35-4.01,7.82-6.93,11.03-11.02,0-.96-11.69-11.22-13.57-13.48-20.44-24.55-15.84-46.83,7.49-66.95-.05,8.84,4.37,16.92,10.47,23.01,13.26,13.23,38.35,31.04,54.01,42.9,1.57,1.19,6.38,5.21,7.9,5.09,2.32-4.61,12.07-13.98,12.55-18.64.97-9.43-23.4-22.26-18.43-35.33.85-2.24,17.27-20.21,18.79-19.95l28.61,26.9Z"/>
    <path class="st0" d="M496.43,427.43c-17.63.27-35.38.17-53.01-.44v-9.12c3.08-2.16,16.23,2.86,15.05-5.85l-27.5-49.54c-1.58-.37-15.62,16.42-16.21,18.73-.83,3.24-.66,31.46.41,33.99,1.76,4.16,13.48,1.09,17.39,2.66,1.58,1.1,1.65,8.24-.56,9.55h-63.44l.44-9.05c8.11-3.06,16.6,3.51,16.6-8.38,0-32.67-.11-73.52-.11-105.88-1.4-8.14-10.82-5.02-16.92-5.55v-9h64.94v8.99h-14.49c-.52,0-4.5,3.09-4.5,3.5v61.44l45.18-54.21c3.84-9.09-6.06-11.54-13.22-10.72v-9h53.95v9c-23.72-1.08-37.26,24.9-50.93,40.43l42.4,75.48c.62.52,5.03,2.88,5.53,2.97l-1,9.99Z"/>
    <path class="st0" d="M497.43,417.44c7.77,1.42,11.35-3.39,15.82-8.66l49.01-121.59,10.41-.65,49.78,123.27c2.24,7.51,8.77,8.8,15.84,8.63v8h-61.94v-8c4.9-.49,16.89.44,17.8-5.71.77-5.25-10.42-23.44-10.93-30.13-7.17.82-46.2-1.91-49.34.86-1.04.92-5.4,12.77-5.99,14.99-4.07,15.33,4.47,19.49,18.47,20l.02,7.99c-16.69-.8-33.33.74-49.96.99l1-9.99ZM538.39,373.48h39.96l-20.47-50.96-19.49,50.96Z"/>
    <path class="st0" d="M478.45,683.18c18.16,3.45,17.3-14.84,5.08-21.58-.48-1.98,6.52-9.41,8.41-9.42,8.7,3.97,10.98,19.75,7.73,27.75-.46,1.13-10.34,11.34-11.25,11.72-2.81,1.19-6.06.28-8.97.52v8h22.48c.82,0,11.5-9.09,12.49-10.49,4.18-5.9,4.4-14.17,1.73-20.72-1.26-3.1-7.49-5.9-6.29-8.74.38-.91,7.92-8.06,9.07-8.06,11.49,7.96,8.98,29.83,2.34,40.37-1.61,2.56-19.64,18.32-22.29,19.67s-19.72,1.59-22.99.93c-10.23-2.07-3.35-30.12-5.73-38.22-.9-3.07-13.12-11.63-12.7-14.05,2.73-1.95,6.23-8.98,9.36-8.68,1.27.12,11.54,9.76,11.54,10.54v20.48Z"/>
    <path class="st0" d="M546.39,713.15l5.99-12.99h35.96v-27.47c0-.59-4.07-4.17-5.52-4.47-6.17-1.26-32.46,3.63-32.47-5.52l10.66-11.42c8.9,8.37,33.23-4.9,35.35,11.4.88,6.76,1.01,33.5-.08,39.93-.53,3.14-4.32,8.03-6.44,10.54h-43.46Z"/>
    <path class="st0" d="M430.5,712.15v-38.46c0-.9-3.39-4.89-4.71-5.28-6.26-1.84-33.27,3.73-33.29-5.7l10.66-11.42c9,7.82,27.81-3.08,34.38,8.37,3.55,6.18-.7,36.96.92,45.99l-7.97,6.51Z"/>
  </g>
  <path class="st2" d="M343.09,718.81c1.6-.18,8.06,1.74,8.37,3.24-8.49,16.2-20.35-1.92-8.37-3.24Z"/>
  <path class="st2" d="M432.66,748.8c2.84-2.36,8.35-1.55,9.96,1.93,2.79,6-2.63,26.02-12.64,19.64-5.5-2.71-.08-19.28,2.68-21.57Z"/>
  <path class="st2" d="M644.92,715.69c8.99-1.62,21.31,22.89,7.74,22.87-7.99-.01-18.39-20.95-7.74-22.87Z"/>
  <path class="st2" d="M546.12,762.34c-.91,1.47-8.81,1.15-10.84,1.15-2.94-15.98,15.9-9.32,10.84-1.15Z"/>
  <text>
    <textPath startOffset=".04%" xlink:href="#path"><tspan class="st3"><tspan x="0" y="0">ka-kosher.com</tspan></tspan>
    </textPath></text>
  <circle class="st1" cx="167.34" cy="504.52" r="4.52"/>
  <text>
    <textPath startOffset=".43%" xlink:href="#path1"><tspan class="st4"><tspan x="0" y="0">SUPERVISORES EN CALIDAD KOSHER S.C.</tspan></tspan>
    </textPath></text>
</svg>