<?xml version="1.0" encoding="UTF-8"?>
<svg id="Capa_1" data-name="Capa 1" xmlns="http://www.w3.org/2000/svg" viewBox="0 0 929.77 927.82">
  <defs>
    <style>
      .cls-1 {
        fill: none;
      }

      .cls-2 {
        fill: #fefdfe;
      }

      .cls-3 {
        stroke: #13559d;
        stroke-miterlimit: 10;
        stroke-width: 7px;
      }

      .cls-3, .cls-4 {
        fill: #11549d;
      }

      .cls-5 {
        fill: #b5569a;
      }
    </style>
  </defs>
  <path class="cls-2" d="M776.47,137C525.04-97.99,112.04,25.32,32.49,358.73c-83.25,348.97,256.05,650.84,593.07,526.13,310.06-114.72,393.73-520.92,150.91-747.86ZM705.61,696.67c-171.21,174.32-467.86,108.37-549.12-121C63.13,312.17,317.15,58.2,580.61,151.55c227.15,80.48,294.56,372.49,125,545.12Z"/>
  <path class="cls-4" d="M701.87,696.67c-171.21,174.32-467.86,108.37-549.12-121.01C59.39,312.16,313.42,58.2,576.87,151.54c227.15,80.48,294.56,372.49,125,545.13ZM452.27,167.84c-246.27,11.54-372.85,300.18-211.1,488.24,136.69,158.93,392.94,125.45,486.56-60.93,100.3-199.68-52.74-437.74-275.45-427.31Z"/>
  <path class="cls-3" d="M440.53,4c394.49-17.66,631.01,433.16,386.22,744.87-208.85,265.94-626.05,221.95-775.49-80.46C-95.02,372.43,111.69,18.73,440.53,4ZM771.98,137C520.55-98,107.55,25.32,28.01,358.73c-83.26,348.97,256.05,650.83,593.07,526.13,310.06-114.73,393.72-520.92,150.91-747.86Z"/>
  <path class="cls-2" d="M731.46,595.15c-93.62,186.39-349.86,219.87-486.55,60.93-161.75-188.05-35.17-476.7,211.1-488.23,222.71-10.44,375.75,227.63,275.45,427.3Z"/>
  <path class="cls-2" d="M415.24,851.87c1.93-4.95.57-26.26,5.71-27.79,4.48-1.33,14.89,2.3,16.05,7.53,3.55,15.93-6.42,24.49-21.77,20.26Z"/>
  <path class="cls-2" d="M278.38,809.9c-.9-1.2,12.72-25.7,13.98-26.5,4.51-2.87,15.66,6.48,16.05,12.05.31,4.46-4.97,14.78-8.7,17.32-8.12,5.5-13.83-.07-21.33-2.86Z"/>
  <path class="cls-2" d="M351.3,821.91l1,27.96c-.65.68-17.2-4.95-17.95-5.52-1.21-.93-1.31-1.08-.55-2.49,1.12-2.08,12.62-16.21,14.69-18.28.88-.89.86-2.18,2.81-1.67Z"/>
  <path class="cls-2" d="M634.74,98.9c5.94,7.27-4.84,36.77-18.55,25.55-.68-1.09.2-3.39.55-4.67.71-2.55,8.01-22.21,8.79-23.17,1.96-2.4,7.83.61,9.21,2.29Z"/>
  <polygon class="cls-2" points="597.07 103.61 589.05 100.08 597.07 88.62 597.07 103.61"/>
  <path class="cls-2" d="M484.17,67.64l3.01,12.98c-2.36-.26-8.83,1.32-8.84-2.29.55-.86,3.75-13.23,5.83-10.7Z"/>
  <path class="cls-2" d="M797.6,250.63c6.77-1.94,10.32,14.71.62,15.61-2.79.26-8.41-5.58-8.31-8.3.06-1.77,6.23-6.89,7.69-7.31Z"/>
  <path class="cls-2" d="M272.13,114.8c9.76-1.72,8.78,14.74.72,14.81-2.12.02-8.01-10.51-5.47-12.52,1.46-.68,3.22-2.03,4.76-2.3Z"/>
  <path class="cls-2" d="M561.24,72.77c3.21-2.08,9.52,1.68,10.93,5.28,2.16,5.52-1.16,21.65-6.12,24.99-2.94,1.98-10.38,1.81-10.99-1.95-.23-1.43,4.96-27.53,6.18-28.32Z"/>
  <g>
    <path class="cls-4" d="M461.32,436.9c1.47-3.68,6.47-11.08,9.01-14.47,1.09-1.45,8.32-10.18,9.97-8.52-.64,6.68,2.98,12.62,6.59,17.9l63.99,51.96c1.96.35,14.17-16.51,14.08-19.23-.27-8.78-20.93-21.2-19.52-31.91.27-2.07,16.41-21.69,17.81-22.28,1.85-.78,4.49,1.84,5.98,3.06,6.27,5.13,29.85,27.19,33.95,32.98,2.94,4.15,3.89,7.4,2.53,12.51-.81,3.05-12.86,17.53-15.8,16.84-2.71-.63-11.1-12.64-16.96-10.73-5.24,4.23-18.03,18.98-14.2,25.82,26.3,21.92,59.67,40.3,39.93,79.91-3.25,6.52-10.4,16.81-17.47,19,0,0,.81-15.13,0-21.48s-5.74-9.27-7.52-10.46l-78.07-58.75c-6.43,1.2-11.49,8.1-12.23,14.36-2.38,20.09,35.36,26.97,38.64,46.1,5.3,30.97-42.31,28.09-61.08,26.11-1.03-.11-4.69-.39-4.61-1.86,10.42-1.61,23.45-9.74,13.64-20.68-.42-.47-1.56-.19-1.66-.32-8.58-10.4-9.95-22.09-5.99-34.97,2.25-7.34,8-17.62,12.96-23.5,1.9-2.26,10.85-9.3,11.05-10.02.16-.56.1-1.75-.24-2.28-7.86-5.76-15.7-13.86-20.78-22.14-6.45-10.51-8.75-21.06-4-32.97Z"/>
    <path class="cls-5" d="M461.32,436.9c-4.76,11.91-2.45,22.46,4,32.97-2.38.32-4.6,5.46-5.18,5.8-5.01,2.93-11.44-13.11-19.84-10.4-3.72,1.2-19.58,20.86-13.63,26.29,13.91,10.24,26.87,21.09,35.66,36.26-3.95,12.88-2.59,24.56,5.99,34.97-2.45,5.86-13.8,11.05-19.02,7.53-.84-.57-2.18-5.58-3.53-7.46s-4.1-4.34-5.96-6.03c-22.27-20.19-52.26-36.68-75.07-56.85-7.65-3.77-15.71,11.79-13.87,18.87,4.96,19.05,49.6,27.1,37.4,52.31-10.14,20.94-46.33,15.59-64.81,13.6l11.63-5.47c2.16-1.01,4-2.66,5.06-4.79,4.08-8.21-7.43-13.43-10.17-21.72-5.18-15.65,2.26-36.14,12.49-48.39,3.35-4.01,7.82-6.93,11.03-11.02,0-.96-11.69-11.22-13.57-13.48-20.44-24.55-15.84-46.83,7.49-66.95-.05,8.84,4.37,16.92,10.47,23.01,13.26,13.23,38.35,31.04,54.01,42.9,1.57,1.19,6.38,5.21,7.9,5.09,2.32-4.61,12.07-13.98,12.55-18.64.97-9.43-23.4-22.26-18.43-35.33.85-2.24,17.27-20.21,18.79-19.95l28.61,26.9Z"/>
    <path class="cls-4" d="M461.32,389.95c-17.63.27-35.38.17-53.01-.44v-9.12c3.08-2.16,16.23,2.86,15.05-5.85l-27.5-49.54c-1.58-.37-15.62,16.42-16.21,18.73-.83,3.24-.66,31.46.41,33.99,1.76,4.16,13.48,1.09,17.39,2.66,1.58,1.1,1.65,8.24-.56,9.55h-63.44l.44-9.05c8.11-3.06,16.6,3.51,16.6-8.38,0-32.67-.11-73.52-.11-105.88-1.4-8.14-10.82-5.02-16.92-5.55v-9h64.94v8.99h-14.49c-.52,0-4.5,3.09-4.5,3.5v61.44l45.18-54.21c3.84-9.09-6.06-11.54-13.22-10.72v-9h53.95v9c-23.72-1.08-37.26,24.9-50.93,40.43l42.4,75.48c.62.52,5.03,2.88,5.53,2.97l-1,9.99Z"/>
    <path class="cls-5" d="M462.32,379.96c7.77,1.42,11.35-3.39,15.82-8.66l49.01-121.59,10.41-.65,49.78,123.27c2.24,7.51,8.77,8.8,15.84,8.63v8h-61.94v-8c4.9-.49,16.89.44,17.8-5.71.77-5.25-10.42-23.44-10.93-30.13-7.17.82-46.2-1.91-49.34.86-1.04.92-5.4,12.77-5.99,14.99-4.07,15.33,4.47,19.49,18.47,20l.02,7.99c-16.69-.8-33.33.74-49.96.99l1-9.99ZM503.28,336h39.96l-20.47-50.96-19.49,50.96Z"/>
    <path class="cls-4" d="M443.34,645.7c18.16,3.45,17.3-14.84,5.08-21.58-.48-1.98,6.52-9.41,8.41-9.42,8.7,3.97,10.98,19.75,7.73,27.75-.46,1.13-10.34,11.34-11.25,11.72-2.81,1.19-6.06.28-8.97.52v8h22.48c.82,0,11.5-9.09,12.49-10.49,4.18-5.9,4.4-14.17,1.73-20.72-1.26-3.1-7.49-5.9-6.29-8.74.38-.91,7.92-8.06,9.07-8.06,11.49,7.96,8.98,29.83,2.34,40.37-1.61,2.56-19.64,18.32-22.29,19.67s-19.72,1.59-22.99.93c-10.23-2.07-3.35-30.12-5.73-38.22-.9-3.07-13.12-11.63-12.7-14.05,2.73-1.95,6.23-8.98,9.36-8.68,1.27.12,11.54,9.76,11.54,10.54v20.48Z"/>
    <path class="cls-4" d="M511.27,675.67l5.99-12.99h35.96v-27.47c0-.59-4.07-4.17-5.52-4.47-6.17-1.26-32.46,3.63-32.47-5.52l10.66-11.42c8.9,8.37,33.23-4.9,35.35,11.4.88,6.76,1.01,33.5-.08,39.93-.53,3.14-4.32,8.03-6.44,10.54h-43.46Z"/>
    <path class="cls-4" d="M395.38,674.67v-38.46c0-.9-3.39-4.89-4.71-5.28-6.26-1.84-33.27,3.73-33.29-5.7l10.66-11.42c9,7.82,27.81-3.08,34.38,8.37,3.55,6.18-.7,36.96.92,45.99l-7.97,6.51Z"/>
  </g>
  <path class="cls-2" d="M307.97,681.33c1.6-.18,8.06,1.74,8.37,3.24-8.49,16.2-20.35-1.92-8.37-3.24Z"/>
  <path class="cls-2" d="M397.55,711.31c2.84-2.36,8.35-1.55,9.96,1.93,2.79,6-2.63,26.02-12.64,19.64-5.5-2.71-.08-19.28,2.68-21.57Z"/>
  <path class="cls-2" d="M609.8,678.2c8.99-1.62,21.31,22.89,7.74,22.87-7.99-.01-18.39-20.95-7.74-22.87Z"/>
  <path class="cls-2" d="M511,724.86c-.91,1.47-8.81,1.15-10.84,1.15-2.94-15.98,15.9-9.32,10.84-1.15Z"/>
  <circle class="cls-1" cx="132.23" cy="467.04" r="4.52"/>
  <g>
    <path class="cls-5" d="M171.82,672.71l14.14,15.8-37.56,31.69,16.7,3.26c2.67.5,4.46.37,5.35-.38.56-.47.77-1.21.64-2.22-.13-1.01-.81-2.25-2.03-3.7l-1.01-1.2,3.33-2.81,16.82,19.93-3.33,2.81c-1.87-2.07-3.54-3.52-5.01-4.33-2.01-1.12-4.24-1.89-6.69-2.33l-9.67-1.73-6.48,27.11c-.48,2.16-.11,3.95,1.1,5.39l1.54,1.83-3.4,2.87-18.14-21.51,3.4-2.87,1.78,2.11c.86,1.02,1.58,1.64,2.16,1.86.58.22,1.01.21,1.3-.04.27-.22.45-.59.57-1.1l4.53-17.86-7.64-1.59-6.8,5.74c-1.07.91-1.65,1.77-1.73,2.59-.08.82.3,1.73,1.14,2.73l2.01,2.38-3.4,2.87-17.71-20.99,3.4-2.87,2.19,2.6c1.05,1.24,2.11,1.9,3.19,1.97,1.08.07,2.23-.41,3.45-1.44l41.23-34.78c.93-.78,1.39-1.67,1.39-2.65,0-.99-.44-2.01-1.33-3.06l-2.76-3.27,3.33-2.81Z"/>
    <path class="cls-5" d="M208.78,803.85l-.74,3.92c-2.35-.27-4.27-.71-5.78-1.34-1.5-.63-2.95-1.55-4.35-2.77-2.07-1.8-3.36-3.7-3.87-5.68-.51-1.99-.24-4.66.82-8.01-4.57.3-8.21.04-10.93-.78s-5.3-2.29-7.75-4.43c-3.39-2.95-5.36-6.04-5.9-9.25-.54-3.22.23-6.03,2.33-8.44,3.16-3.63,7.45-5.02,12.87-4.15,4.32.72,12.01,4.35,23.04,10.91l4.24-4.88c1.67-1.93,2.4-4.05,2.18-6.38-.22-2.33-1.4-4.42-3.54-6.28-1.64-1.42-3.39-2.33-5.24-2.72-1.24-.28-2.06-.18-2.46.27-.21.24-.37.74-.47,1.49-.27,1.67-.86,3.03-1.78,4.09-1.17,1.35-2.57,2.05-4.18,2.11-1.61.06-3.17-.57-4.66-1.86-1.59-1.38-2.47-2.94-2.65-4.68-.18-1.74.35-3.32,1.59-4.74,2.03-2.33,5.08-3.29,9.16-2.88,5.08.53,9.97,2.83,14.66,6.92,3.54,3.08,6.2,6.36,7.98,9.86,1.15,2.23,1.51,4.69,1.09,7.39-.42,2.7-1.74,5.32-3.96,7.87l-14.92,17.15c-1.13,1.3-1.71,2.45-1.73,3.44-.02,1,.39,1.86,1.23,2.59.7.61,1.94,1.03,3.72,1.27ZM205.78,776.96c-5.76-3.78-10.18-5.73-13.26-5.86-3.08-.12-5.66,1-7.73,3.39-1.47,1.69-2.16,3.35-2.09,5,.07,1.65.87,3.14,2.42,4.48,2.38,2.07,5.11,2.94,8.17,2.6,3.06-.34,5.88-1.99,8.46-4.95l4.05-4.66Z"/>
    <path class="cls-5" d="M228.78,791.33l24.72,16.92-5.11,7.46-24.72-16.92,5.11-7.46Z"/>
    <path class="cls-5" d="M278.22,772.85l19.16,9.08-22.34,43.77,16.66-3.47c2.66-.58,4.25-1.38,4.79-2.43.33-.65.24-1.41-.27-2.3-.51-.88-1.61-1.76-3.31-2.62l-1.4-.71,1.98-3.88,23.23,11.86-1.98,3.88c-2.53-1.18-4.62-1.87-6.29-2.05-2.28-.25-4.64-.1-7.07.45l-9.58,2.16,4.54,27.5c.4,2.17,1.43,3.69,3.11,4.54l2.13,1.09-2.02,3.96-25.06-12.79,2.02-3.96,2.46,1.26c1.19.61,2.09.9,2.71.88.62-.02,1.01-.2,1.19-.54.16-.31.19-.72.1-1.24l-2.75-18.22-7.66,1.5-4.05,7.93c-.64,1.25-.84,2.27-.59,3.06s.95,1.48,2.11,2.07l2.77,1.41-2.02,3.96-24.46-12.49,2.02-3.96,3.03,1.54c1.45.74,2.69.93,3.71.58,1.02-.35,1.9-1.24,2.62-2.66l24.52-48.04c.55-1.08.63-2.07.25-2.98-.38-.91-1.19-1.68-2.41-2.31l-3.81-1.95,1.98-3.88Z"/>
    <path class="cls-5" d="M350.82,830.97c4.78,1.49,8.85,3.89,12.21,7.21,3.36,3.32,5.5,6.95,6.41,10.89.91,3.94.64,8.26-.82,12.95-2.33,7.49-6.67,12.45-13.02,14.87-6.35,2.42-12.75,2.62-19.21.61-4.57-1.42-8.43-3.75-11.58-6.99-3.15-3.24-5.21-6.92-6.16-11.04-.96-4.12-.75-8.38.61-12.76,2.06-6.61,6.09-11.43,12.09-14.46,6-3.03,12.49-3.45,19.47-1.28ZM349.75,835.4c-3.17-.99-6.12-.38-8.86,1.83-2.74,2.2-5.2,6.81-7.38,13.82-2.27,7.28-2.9,12.59-1.9,15.92,1,3.34,3.08,5.5,6.25,6.48,3.23,1,6.27.4,9.14-1.82,2.86-2.22,5.37-6.8,7.53-13.74,2.22-7.13,2.79-12.4,1.72-15.83-1.07-3.42-3.24-5.64-6.5-6.66Z"/>
    <path class="cls-5" d="M413.87,848.71l3.68-3.25,2.88.45-1.41,15.28-3.83-.6c-1.39-4.33-3.17-7.5-5.32-9.51-2.16-2.01-4.95-3.28-8.39-3.81-2.96-.46-5.31-.24-7.03.65-1.72.9-2.72,2.21-2.99,3.95-.27,1.71.13,3.1,1.19,4.17,1.05,1.1,4.18,2.61,9.37,4.52,4.7,1.74,7.8,3.06,9.31,3.97,2.87,1.71,4.97,3.91,6.31,6.6s1.76,5.67,1.25,8.92c-.64,4.1-2.82,7.29-6.55,9.57-3.73,2.28-8.27,3-13.62,2.17-2.58-.4-4.87-1.08-6.87-2.02-2-.94-4.01-2.36-6.04-4.26l-4,3.44-3.59-.56,1.76-16.87,3.92.61c2.02,8.97,7.1,14.09,15.24,15.35,3.34.52,5.99.27,7.96-.75,1.97-1.02,3.09-2.43,3.37-4.23.26-1.64-.1-2.97-1.07-4-.97-1.02-3.76-2.4-8.37-4.12-4.98-1.84-8.33-3.29-10.08-4.33-2.99-1.72-5.12-3.81-6.39-6.25-1.27-2.44-1.66-5.2-1.18-8.29.69-4.41,2.72-7.8,6.09-10.16,3.37-2.36,7.52-3.16,12.44-2.39,2.4.37,4.51.99,6.33,1.86,1.82.87,3.69,2.16,5.62,3.88Z"/>
    <path class="cls-5" d="M431.07,823.83l21.16-.72-.55,34.83c3.28-3.9,6.29-6.56,9.03-7.97,2.73-1.41,5.71-2.09,8.93-2.04,4.46.07,7.86,1.48,10.17,4.23,2.63,3.17,3.9,7.61,3.81,13.32l-.34,21.24c-.02,1.47.29,2.55.95,3.25.65.7,1.62,1.05,2.88,1.08l3.09.05-.07,4.45-26.99-.43.07-4.45,2.92.05c1.63.03,2.73-.26,3.32-.86.81-.78,1.23-1.89,1.25-3.33l.33-20.86c.05-3-.72-5.39-2.3-7.19-1.58-1.8-3.59-2.71-6.01-2.75-3-.05-5.6,1.17-7.81,3.66-2.21,2.49-3.35,5.9-3.42,10.23l-.26,16.6c-.02,1.44.3,2.51.98,3.22.67.71,1.65,1.08,2.93,1.1l3.25.05-.07,4.45-27.85-.44.07-4.45,3.88.06c1.37.02,2.41-.33,3.13-1.05.71-.72,1.08-1.77,1.1-3.14l.84-52.68c.02-1.53-.44-2.74-1.4-3.64s-2.25-1.35-3.88-1.38l-3.21-.05.07-4.45Z"/>
    <path class="cls-5" d="M547.89,865.09l-31.05,4.64c1.02,6.2,2.96,10.6,5.81,13.19,2.85,2.59,6.17,3.6,9.95,3.04,2.71-.41,5.16-1.55,7.36-3.42s4.28-4.99,6.23-9.35l3.77,1.61c-1.97,5.13-4.54,8.98-7.69,11.53-3.15,2.55-7.22,4.2-12.2,4.94-7.26,1.08-13.46-.25-18.6-3.99-5.14-3.75-8.23-9.08-9.26-15.99-1.03-6.91.36-13.02,4.18-18.33,3.82-5.31,9.01-8.46,15.57-9.44,4.54-.68,8.59-.33,12.13,1.04s6.49,3.71,8.84,7.02c2.35,3.31,4,7.81,4.95,13.51ZM516.2,865.42l14.78-2.21c1.38-.21,2.32-.7,2.82-1.49s.6-2.09.33-3.92c-.55-3.66-1.8-6.37-3.77-8.12s-4.24-2.44-6.82-2.05c-3.05.46-5.19,2.16-6.4,5.12-1.21,2.96-1.52,7.18-.93,12.67Z"/>
    <path class="cls-5" d="M595.06,870.16l1.28,4.26-29.97,9.02-1.28-4.26,3.71-1.12c1.53-.46,2.55-1.09,3.08-1.9.52-.81.63-1.71.33-2.72l-7.64-25.38c-.62-2.05-1.53-3.4-2.75-4.07-1.22-.67-2.67-.75-4.35-.24l-2.43.73-1.21-4.03,18.04-6.48,4.21,13.98c-.34-5,.45-9.15,2.35-12.45s4.52-5.46,7.85-6.46c2.84-.85,5.31-.77,7.42.24s3.52,2.71,4.23,5.1c.62,2.05.54,3.88-.22,5.49-.76,1.61-1.97,2.67-3.62,3.16-1.47.44-2.89.27-4.28-.51-1.38-.78-2.33-2.03-2.85-3.74-.29-.95-.33-2.01-.15-3.2.09-.66.1-1.11.02-1.36-.13-.43-.32-.71-.58-.85-.26-.14-.6-.14-1.02-.02-1.1.33-2.11,1.33-3.03,3.01-1.41,2.59-2.17,6.19-2.27,10.8-.11,4.61.49,9.06,1.77,13.33l2.79,9.26c.32,1.07.86,1.8,1.61,2.19.75.39,1.65.43,2.68.12l6.28-1.89Z"/>
    <path class="cls-5" d="M621.91,848.87c2.06-.87,4.12-.87,6.2-.01,2.07.86,3.54,2.32,4.41,4.38.88,2.09.9,4.17.06,6.26-.84,2.08-2.29,3.56-4.34,4.42-2.03.85-4.08.85-6.15,0-2.07-.86-3.55-2.33-4.43-4.42-.87-2.06-.88-4.13-.04-6.21.84-2.08,2.27-3.55,4.3-4.4Z"/>
    <path class="cls-5" d="M679.16,818.34l4.12-.26c.74,5.35.01,10.22-2.19,14.59-2.2,4.38-5.75,7.92-10.63,10.63-6.61,3.67-12.77,4.73-18.49,3.17-5.71-1.55-10.27-5.38-13.66-11.49-3.65-6.58-4.46-13.21-2.42-19.89,2.04-6.68,6.69-12.03,13.94-16.05,5.22-2.89,9.79-4.05,13.72-3.48,3.93.57,6.72,2.35,8.38,5.34,1.21,2.18,1.56,4.23,1.05,6.18-.51,1.94-1.75,3.46-3.73,4.56-1.73.96-3.38,1.23-4.95.8-1.57-.42-2.79-1.43-3.67-3.02-.76-1.37-1.08-3.27-.97-5.7.06-1.02,0-1.68-.17-1.98-.31-.56-1.02-.82-2.14-.79-1.62-.01-3.42.53-5.4,1.63-3.69,2.05-5.71,4.7-6.06,7.96-.49,4.32,1,9.62,4.49,15.9,3.48,6.28,7.03,10.08,10.64,11.42s7.15,1.04,10.61-.88c2.74-1.52,4.81-3.86,6.21-7.03,1.4-3.17,1.84-7.03,1.32-11.6Z"/>
    <path class="cls-5" d="M692.61,770.66c3.98-3.04,8.3-4.96,12.95-5.78,4.65-.82,8.85-.46,12.59,1.08,3.74,1.54,7.1,4.26,10.08,8.17,4.76,6.24,6.28,12.65,4.58,19.22-1.71,6.58-5.25,11.91-10.63,16.01-3.8,2.9-7.94,4.7-12.4,5.39-4.46.7-8.65.24-12.57-1.37-3.91-1.61-7.26-4.24-10.05-7.89-4.2-5.5-5.79-11.58-4.78-18.23,1.01-6.65,4.42-12.18,10.23-16.61ZM695.59,774.1c-2.64,2.01-3.85,4.77-3.64,8.28.21,3.51,2.54,8.18,6.99,14.02,4.62,6.06,8.58,9.65,11.88,10.77,3.3,1.12,6.27.67,8.91-1.34,2.69-2.05,3.96-4.88,3.81-8.5-.15-3.62-2.43-8.32-6.84-14.1-4.53-5.94-8.5-9.46-11.91-10.57-3.41-1.11-6.48-.63-9.19,1.44Z"/>
    <path class="cls-5" d="M812.26,712.57l3.3,2.98-18.11,20.07-3.3-2.98,1.86-2.06c1.13-1.26,1.68-2.36,1.64-3.32-.04-.96-.58-1.91-1.62-2.84l-14.44-13.03c-2.67-2.41-5.14-3.64-7.42-3.69-2.27-.05-4.29.91-6.07,2.87-1.45,1.61-2.34,3.32-2.65,5.12-.31,1.8,0,3.88.94,6.23.94,2.36,2.23,4.27,3.86,5.74l13.02,11.75c.85.77,1.71,1.12,2.59,1.05s1.68-.5,2.41-1.31l2.47-2.74,3.3,2.98-18.43,20.43-3.3-2.98,2.05-2.27c1.11-1.23,1.66-2.24,1.64-3.03-.03-1.01-.53-1.96-1.5-2.84l-14.99-13.53c-2.39-2.16-4.79-3.24-7.18-3.26-2.39-.01-4.42.89-6.06,2.72-1.28,1.42-2.11,3.07-2.47,4.96-.37,1.88-.17,3.95.59,6.2.76,2.25,1.78,3.96,3.06,5.11l13.04,11.76c1.33,1.2,2.44,1.77,3.34,1.73,1.19-.08,2.31-.71,3.36-1.87l1.76-1.95,3.3,2.98-18.53,20.54-3.3-2.98,2.12-2.34c1.13-1.25,1.69-2.33,1.66-3.24-.02-.9-.59-1.85-1.7-2.86l-19.98-18.02c-.9-.81-1.77-1.28-2.61-1.42s-1.74.03-2.68.51c-.7.35-1.82,1.37-3.33,3.05l-3.23-2.92,11.63-14.39c2.75,1.54,5.53,3.42,8.32,5.63-.85-4.89-.91-8.91-.17-12.04.74-3.14,2.22-5.94,4.44-8.4,2.39-2.65,5.05-4.24,7.96-4.77,2.91-.53,6.1.02,9.56,1.63-.94-4.93-1.03-9.07-.26-12.4.76-3.33,2.24-6.21,4.42-8.63,3.04-3.37,6.49-5.07,10.35-5.12,3.89-.02,7.78,1.73,11.69,5.26l15.92,14.36c1.09.98,2.09,1.44,3.01,1.38.92-.06,1.83-.6,2.76-1.63l1.97-2.18Z"/>
  </g>
  <g>
    <path class="cls-5" d="M78.88,365.69l-2.23-2.64.39-1.46,10.66,2.63-.49,1.85c-3.3.15-5.94.91-7.93,2.27-1.99,1.36-3.26,3.11-3.83,5.25-.48,1.82-.38,3.44.32,4.85.7,1.41,1.75,2.3,3.14,2.67.83.22,1.65.2,2.46-.07.81-.27,1.6-.84,2.35-1.71.76-.87,1.73-2.5,2.93-4.88,1.4-2.78,2.5-4.66,3.3-5.65,1.28-1.57,2.69-2.63,4.25-3.17,1.56-.54,3.29-.56,5.18-.06,2.84.75,4.84,2.32,6.02,4.7,1.42,2.87,1.67,6.02.75,9.46-.84,3.16-2.72,5.76-5.65,7.78l2.39,3.21-.4,1.52-11.38-3.02.48-1.81c6.97-.07,11.18-2.84,12.64-8.33.6-2.24.54-4.13-.18-5.65-.71-1.52-1.85-2.49-3.42-2.91-1.09-.29-2.08-.26-2.97.09s-1.71,1.04-2.47,2.07c-.42.56-1.22,2.02-2.42,4.36-1.64,3.15-3.04,5.34-4.22,6.56-1.18,1.22-2.43,2.01-3.76,2.37s-2.83.33-4.49-.12c-2.79-.74-4.83-2.27-6.1-4.6-1.27-2.32-1.49-5.05-.66-8.17.8-3,2.57-5.47,5.32-7.4Z"/>
    <path class="cls-5" d="M79.45,354.23l5.25-14.91,1.88.66-1.07,3.03c-.15.43-.12.81.08,1.16.21.34.61.62,1.2.83l16.58,5.84c2.34.82,4.35.84,6.03.05,1.68-.79,2.91-2.27,3.67-4.43.56-1.59.72-3.15.49-4.69-.18-1.13-.75-2.21-1.71-3.23-.96-1.02-2.33-1.85-4.12-2.48l-12.73-4.48c-1.62-.57-2.96-.64-4.02-.21-1.06.43-1.81,1.25-2.23,2.45l-.16.44-1.88-.66,3.98-11.31,1.88.66-.28.78c-.41,1.18-.28,2.23.4,3.16.68.93,1.69,1.63,3.01,2.1l13.8,4.86c3.07,1.08,5.17,2.96,6.32,5.65,1.16,2.71,1.11,5.84-.15,9.41-.9,2.55-2.1,4.63-3.61,6.22-1.51,1.59-3.07,2.55-4.68,2.88s-3.51.1-5.7-.67l-16.84-5.93c-.78-.28-1.37-.32-1.77-.13-.39.19-.73.67-.99,1.43l-.77,2.19-1.88-.66Z"/>
    <path class="cls-5" d="M93.14,316.57l7.54-16.79c1.28-2.84,3.07-4.79,5.39-5.83,2.32-1.04,4.6-1.06,6.83-.06,1.7.76,2.96,1.93,3.78,3.5.82,1.57,1.15,3.33.96,5.28-.18,1.95-.64,3.75-1.39,5.4l-2.38,5.31,9.45,4.24c.52.23.99.27,1.42.1.42-.17.74-.48.94-.95l1.48-3.3,1.82.82-6.86,15.28-1.82-.82,1.15-2.56c.26-.57.3-1.06.15-1.48-.16-.42-.5-.75-1.02-.98l-22.09-9.92c-.5-.22-.96-.25-1.38-.08s-.73.47-.92.89l-1.24,2.75-1.82-.82ZM112.09,312.6l1.59-3.55c.56-1.24.78-2.46.68-3.67-.1-1.2-.45-2.18-1.03-2.93-.58-.75-1.73-1.51-3.44-2.28-2.35-1.06-4.29-1.17-5.82-.35-1.1.61-2.15,2.02-3.15,4.23-.57,1.28-.83,2.14-.77,2.58.06.44.35.78.88,1.01l11.05,4.96Z"/>
    <path class="cls-5" d="M107.35,285.43l13.17-24,10.03,4.81-.9,1.64c-2.51-.88-4.43-1.3-5.76-1.28s-2.5.37-3.52,1.03c-1.02.66-1.94,1.75-2.77,3.27l-2.07,3.76c-.32.58-.44,1.07-.35,1.46.09.39.34.7.75.92l9.66,5.3.71-1.29c.81-1.48,1.01-2.86.61-4.14s-1.52-2.52-3.33-3.71l.92-1.68,12.96,7.11-.92,1.68c-2.21-1.07-3.98-1.43-5.31-1.09-1.33.34-2.45,1.33-3.35,2.98l-.58,1.06,10.3,5.66c.45.25.84.29,1.18.14.49-.25.95-.74,1.36-1.49l1.82-3.32c1.25-2.27,1.53-4.53.85-6.78-.68-2.25-2.4-4.36-5.18-6.33l.92-1.68,10.38,6.23-13.74,25.02-1.75-.96,1.36-2.48c.31-.56.4-1.06.27-1.51-.13-.45-.44-.81-.93-1.08l-21.43-11.77c-.45-.25-.86-.28-1.24-.11-.37.17-.77.64-1.18,1.4l-1.2,2.18-1.75-.96Z"/>
    <path class="cls-5" d="M125.18,253.5l9.09-13.66c1.48-2.22,2.97-3.83,4.48-4.85,1.51-1.01,2.99-1.53,4.44-1.55,1.45-.02,2.78.37,4,1.18,1.94,1.29,2.94,3.2,3,5.72.05,1.92-.7,4.33-2.24,7.24,1.14-1.22,2.2-2.03,3.18-2.43.99-.41,2.16-.57,3.51-.48,1.78.11,3.73.53,5.85,1.26,1.35.47,2.25.7,2.7.67.45-.03.77-.18.95-.46.52-.78-.22-1.94-2.2-3.48l1.04-1.56c2.14,1.59,3.4,3.14,3.79,4.64.39,1.5.06,3.03-.99,4.6-.75,1.12-1.58,1.87-2.49,2.23-.92.37-1.94.43-3.07.19-.65-.13-2.05-.64-4.2-1.52-2.51-1.04-4.26-1.64-5.25-1.8-.99-.16-1.86-.09-2.6.22-.74.31-1.38.87-1.92,1.68l-1.28,1.93,9.75,6.49c.43.29.84.38,1.23.28.53-.16.96-.47,1.27-.94l1.58-2.37,1.66,1.11-8.82,13.25-1.66-1.11,1.37-2.05c.35-.53.48-1.02.38-1.48-.1-.46-.4-.85-.9-1.19l-19.94-13.27c-.55-.36-1.03-.51-1.45-.43s-.79.35-1.09.81l-1.48,2.23-1.66-1.11ZM143.36,252.21l1.47-2.21c1.3-1.96,1.82-3.84,1.56-5.65-.21-1.37-1.23-2.66-3.07-3.88-1.69-1.13-3.21-1.53-4.55-1.21-1.34.32-2.69,1.51-4.07,3.57-.74,1.11-1.08,1.89-1.02,2.33s.51.95,1.35,1.51l8.32,5.54Z"/>
    <path class="cls-5" d="M144.67,224.43l9.62-12.01,1.56,1.25-1.05,1.31c-.72.9-1.1,1.56-1.16,2-.06.44.06.77.35,1,.27.21.81.45,1.64.7l19.96,5.88-8.79-15.32c-.59-1.03-1.26-1.83-1.99-2.43-.69-.56-1.38-.77-2.07-.65-.69.12-1.36.6-2.02,1.43l-.89,1.11-1.56-1.25,7.6-9.49,1.56,1.25-.57.71c-.49.61-.71,1.32-.67,2.14s.43,1.89,1.17,3.21l14.17,25.06-1.59,1.98-29.11-8.58c-.99-.3-1.76-.36-2.32-.17-.56.19-1.18.72-1.87,1.58l-.41.51-1.56-1.25Z"/>
    <path class="cls-5" d="M168.3,195.61l10.93-11.84,1.47,1.36-1.98,2.14c-.42.46-.64.88-.65,1.25,0,.38.17.73.52,1.06l18.07,16.69c.42.39.82.56,1.2.5.49-.07.98-.37,1.47-.9l1.76-1.91,1.47,1.36-10.93,11.84-1.47-1.35,1.67-1.81c.58-.62.88-1.16.9-1.61.02-.45-.17-.86-.58-1.24l-17.87-16.5c-.44-.41-.88-.59-1.3-.55-.43.04-.87.31-1.33.81l-1.9,2.06-1.47-1.36Z"/>
    <path class="cls-5" d="M198.94,167.99l-.52-3.42,1.1-1.04,7.69,7.84-1.39,1.32c-2.89-1.6-5.53-2.35-7.94-2.23-2.41.12-4.41.94-6.01,2.46-1.37,1.3-2.12,2.73-2.27,4.29-.15,1.57.28,2.87,1.27,3.92.59.62,1.3,1.03,2.13,1.23.83.2,1.8.12,2.9-.22,1.1-.35,2.79-1.22,5.05-2.62,2.65-1.63,4.58-2.65,5.77-3.08,1.91-.67,3.67-.82,5.28-.46,1.61.36,3.09,1.25,4.44,2.67,2.02,2.13,2.91,4.52,2.66,7.16-.3,3.19-1.74,6-4.32,8.45-2.38,2.25-5.34,3.47-8.89,3.66l.35,3.99-1.14,1.08-8.1-8.54,1.36-1.29c5.97,3.6,11.01,3.45,15.13-.46,1.68-1.6,2.62-3.23,2.81-4.9.19-1.67-.27-3.09-1.38-4.27-.78-.82-1.64-1.31-2.57-1.48-.94-.17-2-.01-3.19.46-.65.26-2.1,1.08-4.35,2.44-3.05,1.82-5.39,2.95-7.03,3.37s-3.12.44-4.45.05c-1.33-.39-2.58-1.21-3.76-2.45-1.99-2.1-2.92-4.47-2.78-7.12.14-2.65,1.38-5.08,3.72-7.3,2.25-2.14,5.06-3.3,8.42-3.51Z"/>
    <path class="cls-5" d="M218.26,147.42c2.33-1.83,4.92-2.95,7.78-3.36,2.86-.41,5.61-.06,8.25,1.04s4.93,2.88,6.87,5.35c2.95,3.75,4.19,7.82,3.73,12.22s-2.48,8.02-6.06,10.84c-2.38,1.87-4.97,2.99-7.75,3.33-2.78.35-5.48-.01-8.09-1.08-2.61-1.07-4.92-2.88-6.93-5.44-2.98-3.79-4.25-7.86-3.79-12.21.46-4.35,2.45-7.91,5.98-10.69ZM219.63,148.96c-1.33,1.04-2.19,2.32-2.58,3.82-.4,1.5-.23,3.3.49,5.4.72,2.09,2.2,4.57,4.45,7.43,2.36,3,4.42,5.07,6.16,6.2,1.75,1.13,3.42,1.67,5.01,1.61,1.6-.05,3.07-.61,4.42-1.67,1.99-1.57,2.91-3.68,2.74-6.35-.17-2.66-1.93-6.13-5.29-10.41-2.35-2.99-4.38-5.04-6.07-6.14-1.69-1.1-3.34-1.62-4.93-1.56-1.59.06-3.06.62-4.39,1.67Z"/>
    <path class="cls-5" d="M237.73,133.66l13.88-8.75c2.25-1.42,4.27-2.29,6.06-2.59s3.35-.18,4.68.4c1.33.57,2.39,1.48,3.17,2.71,1.24,1.97,1.38,4.12.4,6.45-.74,1.77-2.41,3.67-5,5.69,1.53-.65,2.83-.95,3.9-.92,1.07.03,2.2.37,3.4,1,1.58.83,3.19,2.01,4.82,3.54,1.04.99,1.77,1.56,2.19,1.72.42.16.77.15,1.06-.03.79-.5.6-1.86-.59-4.08l1.58-1c1.3,2.33,1.82,4.26,1.56,5.78-.26,1.53-1.19,2.79-2.78,3.8-1.14.72-2.2,1.06-3.19,1.02-.99-.04-1.95-.4-2.88-1.08-.54-.38-1.62-1.42-3.21-3.1-1.86-1.97-3.22-3.24-4.06-3.79-.84-.55-1.66-.84-2.46-.86-.8-.02-1.61.23-2.44.75l-1.96,1.24,6.25,9.9c.27.44.61.69,1.01.76.55.08,1.07-.04,1.54-.34l2.41-1.52,1.07,1.69-13.46,8.49-1.07-1.69,2.09-1.32c.54-.34.86-.74.95-1.2.1-.46-.02-.94-.34-1.45l-12.78-20.26c-.35-.56-.73-.89-1.15-.99-.42-.1-.86,0-1.32.29l-2.27,1.43-1.07-1.69ZM254.84,139.92l2.25-1.42c1.99-1.25,3.23-2.76,3.74-4.52.37-1.33-.04-2.93-1.22-4.8-1.08-1.72-2.3-2.71-3.65-2.97s-3.08.28-5.17,1.6c-1.13.71-1.75,1.28-1.89,1.71-.13.43.08,1.07.62,1.93l5.33,8.45Z"/>
    <path class="cls-5" d="M269.46,114.07l24.5-12.21,5.51,9.67-1.67.83c-1.56-2.15-2.9-3.59-4-4.33-1.1-.74-2.26-1.12-3.48-1.16-1.21-.04-2.59.33-4.14,1.1l-3.84,1.92c-.6.3-.97.63-1.12,1-.15.37-.12.77.09,1.19l4.92,9.86,1.31-.65c1.51-.75,2.46-1.77,2.86-3.06s.19-2.93-.62-4.95l1.71-.85,6.59,13.23-1.71.85c-1.21-2.14-2.45-3.44-3.74-3.92-1.28-.48-2.77-.3-4.46.54l-1.08.54,5.24,10.52c.23.46.53.72.89.78.55.08,1.2-.07,1.96-.45l3.39-1.69c2.32-1.16,3.84-2.85,4.57-5.08.72-2.23.51-4.95-.64-8.15l1.71-.85,4.98,11.03-25.55,12.73-.89-1.79,2.53-1.26c.57-.28.93-.65,1.08-1.09.15-.44.1-.92-.15-1.42l-10.9-21.88c-.23-.46-.55-.73-.96-.8-.41-.07-1,.09-1.77.47l-2.23,1.11-.89-1.79Z"/>
    <path class="cls-5" d="M321.08,93.5l.81-3.36,1.41-.55,4.16,10.16-1.78.69c-2.07-2.58-4.24-4.26-6.51-5.06s-4.44-.8-6.5,0c-1.76.68-3,1.72-3.72,3.12-.73,1.4-.83,2.77-.3,4.11.31.8.81,1.45,1.51,1.95.69.5,1.62.79,2.77.89,1.15.1,3.04-.08,5.67-.52,3.07-.51,5.24-.73,6.51-.67,2.02.1,3.71.63,5.07,1.56,1.36.94,2.39,2.32,3.1,4.15,1.07,2.74.98,5.28-.24,7.63-1.48,2.84-3.88,4.9-7.19,6.19-3.05,1.19-6.25,1.2-9.61.03l-1.18,3.83-1.47.57-4.27-10.97,1.74-.68c4.17,5.59,8.89,7.35,14.18,5.29,2.16-.84,3.65-2,4.46-3.48.81-1.47.92-2.96.33-4.47-.41-1.05-1.02-1.83-1.82-2.34-.81-.51-1.85-.77-3.13-.77-.7,0-2.35.2-4.95.62-3.51.54-6.11.69-7.78.46-1.68-.23-3.06-.78-4.14-1.64-1.08-.86-1.93-2.09-2.56-3.69-1.05-2.69-1.01-5.24.12-7.64,1.13-2.4,3.19-4.18,6.2-5.36,2.89-1.13,5.93-1.15,9.12-.07Z"/>
    <path class="cls-5" d="M344.26,83.02l26.55-6.68,3.31,10.62-1.81.46c-1.07-2.43-2.06-4.13-2.98-5.09-.92-.96-1.97-1.58-3.15-1.88s-2.6-.23-4.28.19l-4.16,1.05c-.65.16-1.08.41-1.3.74-.22.33-.28.72-.16,1.18l2.69,10.69,1.42-.36c1.63-.41,2.78-1.2,3.45-2.37s.81-2.83.45-4.96l1.85-.47,3.61,14.33-1.85.47c-.72-2.34-1.66-3.89-2.81-4.63-1.15-.74-2.64-.89-4.47-.43l-1.17.3,2.87,11.4c.13.5.36.82.7.95.52.19,1.19.19,2.01-.02l3.67-.92c2.51-.63,4.36-1.96,5.55-3.99,1.18-2.03,1.56-4.73,1.12-8.1l1.85-.47,2.5,11.84-27.68,6.97-.49-1.94,2.74-.69c.62-.16,1.05-.43,1.29-.83.24-.4.3-.87.16-1.41l-5.97-23.71c-.13-.5-.38-.83-.76-.98-.38-.15-.99-.13-1.83.08l-2.41.61-.49-1.94Z"/>
    <path class="cls-5" d="M379.07,74.48l9.64-1.48,20.14,18.94-2.25-14.63c-.22-1.44-.81-2.54-1.75-3.28-.95-.75-2.18-1.05-3.69-.92l-.3-1.98,11.34-1.75.3,1.98c-1.56.41-2.62,1.07-3.18,1.96-.57.89-.73,2.11-.49,3.65l3.77,24.5-2.43.37-22.96-21.83,2.64,17.16c.3,1.97.97,3.33,2,4.09,1.03.76,2.2,1.04,3.52.84l.52-.08.3,1.97-12.54,1.93-.3-1.97.86-.13c1.23-.19,2.19-.84,2.88-1.96.69-1.12.91-2.46.67-4.01l-3.12-20.27c-1.13-1.11-2.42-1.55-3.88-1.33l-1.39.21-.3-1.98Z"/>
    <path class="cls-5" d="M456.54,69.36l1.36-3.2,1.57-.05.94,12.72-1.95.06c-.73-3.65-1.96-6.33-3.71-8.05-1.74-1.72-3.7-2.55-5.86-2.48-2.38.08-4.31,1.29-5.79,3.62-1.48,2.34-2.15,5.98-1.99,10.91.17,5.22,1.15,9.07,2.95,11.55,1.44,1.94,3.5,2.87,6.17,2.79,2.68-.09,4.9-1.15,6.66-3.2,1.27-1.49,2.12-3.65,2.55-6.49l1.91-.06c-.34,3.64-1.61,6.54-3.82,8.72-2.21,2.18-4.98,3.32-8.31,3.43-4.31.14-7.96-1.28-10.97-4.25s-4.59-6.86-4.75-11.65c-.17-5.32,1.37-9.63,4.62-12.91,2.77-2.8,6.08-4.26,9.92-4.38,1.52-.05,2.93.15,4.24.58,1.31.44,2.73,1.22,4.25,2.34Z"/>
    <path class="cls-5" d="M483.46,66.76l10.5,29.01c.3.82.65,1.38,1.03,1.68.38.3.9.47,1.55.5l1.15.05-.09,2-14.73-.66.09-2,1.38.06c1.09.05,1.85-.04,2.27-.26.42-.22.64-.54.66-.94.01-.31-.05-.68-.21-1.11l-2.16-5.99-11.76-.53-1.24,2.63c-.52,1.09-.79,1.91-.81,2.46-.04.93.26,1.7.92,2.31.65.61,1.57.94,2.75.99l1,.04-.09,2-11.93-.53.09-2,.68.03c.77.03,1.45-.18,2.06-.64.85-.65,1.53-1.5,2.04-2.55l12.47-26.67,2.38.11ZM479.68,74.65l-5.57,11.87,10.01.45-4.44-12.32Z"/>
    <path class="cls-5" d="M502.6,70.66l.24-1.98,16.01,1.97-.24,1.98-2.7-.33c-.77-.09-1.33-.01-1.68.25-.35.26-.56.72-.64,1.39l-2.88,23.46c-.12.95-.04,1.58.22,1.88.26.3.94.52,2.04.65l4.49.55c1.67.21,3.33-.41,4.98-1.83,1.65-1.43,3.07-3.86,4.28-7.29l1.9.23-2.2,12-27.44-3.37.24-1.98,2.74.34c.6.07,1.08-.03,1.43-.3.35-.27.56-.7.63-1.27l2.96-24.12c.07-.58-.04-1.02-.32-1.33-.28-.3-.81-.5-1.59-.6l-2.47-.3Z"/>
    <path class="cls-5" d="M535.75,73.08l15.83,2.99-.37,1.96-2.86-.54c-.61-.12-1.08-.08-1.41.12-.33.19-.53.53-.62,1.01l-4.57,24.17c-.11.56-.04.99.21,1.29.32.38.83.64,1.54.77l2.55.48-.37,1.96-15.83-2.99.37-1.96,2.42.46c.83.16,1.45.13,1.84-.09s.64-.6.75-1.15l4.52-23.9c.11-.59.04-1.06-.22-1.4s-.72-.57-1.39-.7l-2.76-.52.37-1.96Z"/>
    <path class="cls-5" d="M557,76.98l16.35,4.36c2.97.79,5.41,2.12,7.31,4s3.18,4.15,3.83,6.85.58,5.51-.21,8.46c-.82,3.06-2.11,5.56-3.87,7.52-1.77,1.95-3.99,3.29-6.66,4.02-2.67.73-5.33.73-7.99.03l-16.94-4.52.52-1.93,2.53.67c.62.16,1.13.12,1.53-.14.41-.25.69-.69.85-1.3l6.17-23.12c.17-.62.12-1.12-.13-1.49-.25-.37-.77-.66-1.55-.87l-2.24-.6.51-1.93ZM564.26,109.74c1.88.5,3.67.47,5.37-.1s3.1-1.59,4.19-3.08c1.08-1.48,2.09-3.96,3.02-7.44.98-3.66,1.34-6.56,1.1-8.71-.24-2.15-.9-3.81-1.98-4.98-1.08-1.17-2.88-2.09-5.4-2.76-1.38-.37-2.28-.48-2.69-.34-.41.14-.7.52-.87,1.15l-6.2,23.25c-.18.69-.18,1.23.02,1.61.2.38.61.65,1.22.82l2.22.59Z"/>
    <path class="cls-5" d="M609.93,92.23l1.12,30.83c.04.87.2,1.51.47,1.92.27.41.71.72,1.33.95l1.08.4-.7,1.87-13.83-5.14.7-1.87,1.29.48c1.02.38,1.77.53,2.24.44.47-.09.77-.32.91-.69.11-.29.16-.67.14-1.12l-.22-6.36-11.03-4.1-1.98,2.13c-.83.88-1.34,1.58-1.53,2.09-.32.87-.27,1.7.17,2.48.44.78,1.21,1.38,2.31,1.79l.94.35-.7,1.87-11.2-4.16.7-1.87.64.24c.72.27,1.44.27,2.15.02,1.01-.36,1.92-.96,2.72-1.81l20.04-21.57,2.24.83ZM603.93,98.58l-8.94,9.6,9.4,3.49-.46-13.09Z"/>
    <path class="cls-5" d="M628.12,100.06l15.21,7.41c2.76,1.35,4.9,3.12,6.41,5.32,1.51,2.2,2.33,4.69,2.44,7.45s-.49,5.52-1.83,8.26c-1.39,2.85-3.13,5.06-5.24,6.64-2.11,1.58-4.54,2.47-7.3,2.67-2.76.2-5.38-.3-7.85-1.51l-15.76-7.68.88-1.8,2.35,1.15c.57.28,1.08.33,1.53.16.45-.17.81-.54,1.08-1.11l10.48-21.52c.28-.58.33-1.08.16-1.49-.18-.41-.63-.8-1.36-1.15l-2.08-1.01.88-1.8ZM628.97,133.6c1.75.85,3.51,1.16,5.29.93,1.78-.23,3.35-.97,4.7-2.22,1.35-1.25,2.81-3.49,4.39-6.72,1.66-3.4,2.57-6.18,2.75-8.33.17-2.15-.16-3.91-.99-5.27-.84-1.36-2.43-2.61-4.77-3.75-1.29-.63-2.15-.91-2.58-.85-.43.06-.79.38-1.07.96l-10.54,21.63c-.31.64-.41,1.17-.29,1.58s.47.76,1.04,1.03l2.06,1.01Z"/>
    <path class="cls-5" d="M675.39,124.71l12.91,8.68-1.11,1.66-2.11-1.42c-.68-.46-1.21-.66-1.6-.61-.39.05-.75.32-1.08.81l-7.83,11.66,15.36-4.25c.88-.25,1.48-.63,1.81-1.11.28-.42.34-.83.18-1.25-.22-.58-.69-1.11-1.41-1.6l-.72-.49,1.11-1.66,10.74,7.22-1.11,1.66-.67-.45c-.96-.65-2.02-1-3.17-1.07-1.7-.09-3.63.17-5.8.79l-5.93,1.65-1.33,18.68c-.05.79.06,1.46.34,2.01.36.73.83,1.29,1.41,1.67l1.02.69-1.11,1.66-12.81-8.6,1.11-1.66,1.31.88c.71.47,1.27.72,1.71.73.43.02.73-.1.9-.35.1-.14.14-.33.14-.56l.93-13.38-5.92,1.65-3.88,5.78c-.31.46-.42.89-.34,1.29.08.39.34.73.76,1.02l2.36,1.59-1.11,1.66-12.77-8.58,1.11-1.66,1.85,1.24c.54.36,1.02.52,1.45.46.42-.06.79-.32,1.09-.77l13.72-20.42c.28-.42.36-.81.25-1.19-.11-.38-.45-.76-1.02-1.14l-1.85-1.24,1.11-1.66Z"/>
    <path class="cls-5" d="M719.87,155.98c2.28,1.89,3.92,4.19,4.92,6.9,1,2.71,1.24,5.47.72,8.28-.52,2.81-1.78,5.43-3.78,7.84-3.04,3.67-6.76,5.74-11.17,6.22-4.4.48-8.36-.74-11.87-3.65-2.33-1.94-3.96-4.23-4.89-6.87-.93-2.65-1.14-5.36-.64-8.13.5-2.78,1.78-5.41,3.86-7.92,3.08-3.71,6.79-5.8,11.14-6.27,4.35-.47,8.25.73,11.71,3.6ZM718.65,157.64c-1.3-1.08-2.72-1.65-4.28-1.72-1.55-.07-3.28.47-5.17,1.61s-4,3.11-6.32,5.91c-2.44,2.94-4.03,5.38-4.77,7.33s-.91,3.69-.52,5.24c.39,1.55,1.24,2.87,2.56,3.97,1.95,1.62,4.21,2.07,6.78,1.34s5.59-3.18,9.06-7.36c2.43-2.93,4-5.34,4.72-7.23.72-1.89.88-3.6.49-5.15-.39-1.54-1.25-2.86-2.55-3.95Z"/>
    <path class="cls-5" d="M748.81,187.07l3.4-.62,1.07,1.06-7.6,7.92-1.36-1.35c1.52-2.93,2.18-5.6,1.99-8s-1.07-4.38-2.64-5.94c-1.34-1.33-2.79-2.04-4.36-2.14-1.57-.1-2.86.36-3.88,1.39-.61.61-1,1.33-1.17,2.17-.17.84-.07,1.8.31,2.9.38,1.09,1.3,2.75,2.77,4.97,1.7,2.6,2.79,4.49,3.25,5.68.72,1.89.93,3.65.62,5.27s-1.16,3.13-2.54,4.52c-2.07,2.08-4.43,3.04-7.08,2.87-3.19-.21-6.05-1.56-8.57-4.07-2.32-2.31-3.63-5.23-3.92-8.78l-3.97.47-1.12-1.11,8.3-8.35,1.33,1.32c-3.42,6.07-3.12,11.11.91,15.11,1.65,1.64,3.31,2.53,4.98,2.67,1.67.14,3.08-.36,4.22-1.51.8-.8,1.26-1.67,1.4-2.62s-.05-2-.56-3.17c-.28-.64-1.14-2.07-2.57-4.28-1.91-2.99-3.11-5.3-3.58-6.93-.47-1.63-.53-3.11-.18-4.45.35-1.34,1.13-2.61,2.34-3.83,2.04-2.05,4.38-3.05,7.03-2.99,2.65.06,5.12,1.23,7.41,3.5,2.2,2.19,3.45,4.96,3.76,8.31Z"/>
    <path class="cls-5" d="M759.28,194.22l9.36,11.15-1.53,1.29-1.38-1.64c-.39-.47-.79-.73-1.19-.78-.4-.05-.77.07-1.13.36l-7.98,6.7,7.71,9.18,7.57-6.36c.58-.49.88-.95.91-1.39s-.2-.94-.69-1.52l-1.18-1.4,1.53-1.29,9.38,11.17-1.53,1.28-1.26-1.5c-.48-.58-.93-.89-1.35-.94-.42-.05-.86.11-1.32.5l-18.38,15.43c-.54.45-.83.9-.87,1.35-.04.45.12.9.5,1.34l1.41,1.68-1.53,1.29-9.38-11.17,1.53-1.28,1.42,1.69c.39.47.78.71,1.15.74.38.03.81-.17,1.31-.58l8.75-7.35-7.71-9.18-8.75,7.35c-.47.4-.74.78-.79,1.16s.06.74.34,1.07l1.63,1.94-1.53,1.29-9.36-11.15,1.53-1.29,1.5,1.79c.35.41.71.62,1.08.63.37,0,.8-.19,1.28-.59l18.34-15.41c.57-.48.87-.94.9-1.39.03-.45-.19-.95-.66-1.5l-1.17-1.4,1.53-1.28Z"/>
    <path class="cls-5" d="M784.53,224.89l15.59,22.5-8.78,6.83-1.07-1.54c1.9-1.85,3.14-3.38,3.71-4.58.57-1.2.79-2.4.65-3.61s-.7-2.52-1.68-3.94l-2.45-3.53c-.38-.55-.76-.87-1.15-.96-.39-.09-.78,0-1.16.26l-9.06,6.28.83,1.21c.96,1.39,2.11,2.18,3.43,2.39,1.33.21,2.93-.23,4.81-1.33l1.09,1.57-12.15,8.42-1.09-1.57c1.94-1.5,3.06-2.92,3.35-4.26.29-1.34-.1-2.78-1.17-4.33l-.69-1-9.66,6.69c-.42.29-.64.62-.65.99,0,.55.24,1.18.73,1.88l2.16,3.11c1.48,2.13,3.37,3.39,5.69,3.79,2.31.4,4.97-.21,7.98-1.8l1.09,1.57-10.21,6.51-16.26-23.46,1.64-1.14,1.61,2.32c.36.52.77.83,1.24.92.46.09.92-.03,1.38-.35l20.09-13.93c.42-.29.64-.65.65-1.06.01-.41-.23-.97-.72-1.68l-1.42-2.04,1.64-1.14Z"/>
    <path class="cls-5" d="M805.17,255.17l8.14,14.25c1.32,2.31,2.1,4.37,2.33,6.17s.03,3.36-.6,4.66c-.63,1.31-1.58,2.32-2.85,3.05-2.03,1.16-4.18,1.2-6.46.12-1.74-.82-3.56-2.57-5.47-5.25.58,1.56.83,2.87.75,3.94-.08,1.06-.46,2.18-1.15,3.36-.9,1.54-2.15,3.1-3.74,4.67-1.03,1-1.63,1.7-1.81,2.11-.18.41-.18.76-.01,1.06.46.81,1.83.68,4.1-.41l.93,1.62c-2.38,1.2-4.33,1.64-5.85,1.31-1.51-.33-2.74-1.31-3.67-2.94-.67-1.17-.96-2.25-.88-3.23.08-.98.48-1.93,1.2-2.83.41-.53,1.49-1.55,3.24-3.08,2.05-1.78,3.37-3.07,3.96-3.89.59-.82.91-1.63.96-2.42.05-.8-.16-1.62-.64-2.47l-1.15-2.01-10.17,5.81c-.45.26-.72.58-.8.97-.1.55,0,1.07.27,1.56l1.41,2.47-1.73.99-7.9-13.82,1.73-.99,1.22,2.14c.32.55.7.89,1.16,1,.45.12.94.02,1.46-.27l20.8-11.89c.57-.33.92-.7,1.04-1.11.12-.41.04-.86-.23-1.34l-1.33-2.32,1.74-.99ZM798.18,271.99l1.32,2.31c1.17,2.04,2.62,3.35,4.35,3.93,1.31.42,2.93.09,4.84-1.01,1.77-1.01,2.81-2.18,3.12-3.52.32-1.34-.14-3.08-1.37-5.24-.66-1.16-1.2-1.81-1.63-1.96-.42-.15-1.08.03-1.96.53l-8.67,4.96Z"/>
    <path class="cls-5" d="M834.8,318.95l3.39.69.6,1.39-10,4.52-.76-1.76c2.5-2.16,4.11-4.39,4.82-6.69.72-2.3.64-4.46-.24-6.49-.75-1.73-1.83-2.93-3.25-3.61s-2.79-.73-4.12-.15c-.79.34-1.42.87-1.89,1.58-.47.71-.74,1.65-.79,2.8-.05,1.16.19,3.04.72,5.64.62,3.05.92,5.21.91,6.48-.03,2.02-.49,3.73-1.38,5.12-.89,1.39-2.24,2.47-4.04,3.25-2.7,1.16-5.24,1.17-7.64.03-2.89-1.38-5.04-3.7-6.44-6.96-1.3-3-1.42-6.21-.38-9.61l-3.87-1.04-.62-1.44,10.81-4.66.74,1.72c-5.43,4.36-7.03,9.15-4.78,14.36.92,2.13,2.13,3.57,3.63,4.33s3,.81,4.48.17c1.04-.45,1.8-1.08,2.28-1.91.48-.82.7-1.87.66-3.15-.02-.7-.29-2.34-.79-4.93-.66-3.49-.91-6.08-.74-7.76.17-1.69.67-3.08,1.49-4.19.82-1.11,2.02-2.01,3.6-2.69,2.65-1.15,5.2-1.2,7.64-.16,2.44,1.04,4.29,3.04,5.57,6.01,1.23,2.85,1.36,5.89.4,9.11Z"/>
    <path class="cls-5" d="M819.03,340.9c.35.93.31,1.85-.12,2.75s-1.11,1.54-2.05,1.89c-.95.35-1.89.33-2.8-.08-.92-.41-1.55-1.08-1.89-2.01-.34-.92-.3-1.83.13-2.74.43-.91,1.12-1.54,2.07-1.89.94-.35,1.87-.32,2.78.09.92.41,1.54,1.07,1.88,1.99Z"/>
    <path class="cls-5" d="M851.17,365.88l3.45.47.46,1.5-12.02,4.26-.58-1.87c3.32-1.66,5.59-3.56,6.79-5.7,1.2-2.13,1.48-4.24.84-6.31-.7-2.27-2.38-3.82-5.02-4.63s-6.33-.49-11.05.96c-4.99,1.54-8.45,3.5-10.36,5.89-1.5,1.9-1.85,4.13-1.06,6.69s2.4,4.42,4.84,5.58c1.77.83,4.08,1.08,6.93.75l.56,1.83c-3.6.63-6.74.17-9.42-1.39-2.68-1.56-4.52-3.93-5.5-7.11-1.27-4.12-.87-8.02,1.21-11.7,2.08-3.69,5.41-6.24,9.99-7.65,5.09-1.57,9.65-1.22,13.67,1.06,3.43,1.94,5.71,4.74,6.84,8.41.45,1.45.63,2.86.55,4.24-.08,1.38-.46,2.95-1.14,4.72Z"/>
    <path class="cls-5" d="M832.78,385.52c.24.96.09,1.87-.44,2.72-.53.85-1.28,1.4-2.25,1.64-.99.24-1.91.11-2.78-.4-.86-.51-1.41-1.25-1.65-2.21-.23-.95-.09-1.85.44-2.7.53-.85,1.29-1.4,2.27-1.64.97-.24,1.89-.1,2.75.41.86.51,1.41,1.24,1.64,2.19Z"/>
  </g>
</svg>